<mxfile host="app.diagrams.net" modified="2023-12-07T15:47:56.922Z" agent="Mozilla/5.0 (Windows NT 10.0; Win64; x64) AppleWebKit/537.36 (KHTML, like Gecko) Chrome/119.0.0.0 Safari/537.36" etag="QCnC38yNTNUNayojCHHU" version="22.1.7" type="device">
  <diagram id="sfp23NqdBg2InPlJ5_22" name="UML_Class">
    <mxGraphModel dx="1050" dy="1674" grid="1" gridSize="10" guides="1" tooltips="1" connect="1" arrows="1" fold="1" page="1" pageScale="1" pageWidth="850" pageHeight="1100" math="0" shadow="0">
      <root>
        <mxCell id="0" />
        <mxCell id="1" parent="0" />
        <mxCell id="0I9huzyvj9iAl5qBgA_v-49" style="edgeStyle=orthogonalEdgeStyle;rounded=0;orthogonalLoop=1;jettySize=auto;html=1;entryX=0.25;entryY=0;entryDx=0;entryDy=0;endArrow=block;endFill=0;endSize=10;dashed=1;exitX=0.5;exitY=1;exitDx=0;exitDy=0;" parent="1" source="krfez2YbnhOyo7G0hsVJ-2" target="jkBxLj6ySRqab1YEZJy3-1" edge="1">
          <mxGeometry relative="1" as="geometry">
            <mxPoint x="455" y="562" as="targetPoint" />
            <mxPoint x="385" y="414.0000000000001" as="sourcePoint" />
            <Array as="points">
              <mxPoint x="720" y="480" />
              <mxPoint x="865" y="480" />
            </Array>
          </mxGeometry>
        </mxCell>
        <mxCell id="0I9huzyvj9iAl5qBgA_v-68" style="edgeStyle=orthogonalEdgeStyle;rounded=0;orthogonalLoop=1;jettySize=auto;html=1;entryX=0.5;entryY=0;entryDx=0;entryDy=0;endArrow=none;endFill=0;startArrow=diamondThin;startFill=1;endSize=12;startSize=12;exitX=0.5;exitY=1;exitDx=0;exitDy=0;" parent="1" source="AXQaLOeLMbW2LJZ7HspB-1" target="jkBxLj6ySRqab1YEZJy3-1" edge="1">
          <mxGeometry relative="1" as="geometry">
            <mxPoint x="525" y="536" as="targetPoint" />
            <mxPoint x="920" y="280" as="sourcePoint" />
            <Array as="points" />
          </mxGeometry>
        </mxCell>
        <mxCell id="CLxOIF6qqXhIIG2VLRrW-21" value="1" style="edgeLabel;html=1;align=center;verticalAlign=middle;resizable=0;points=[];" parent="0I9huzyvj9iAl5qBgA_v-68" vertex="1" connectable="0">
          <mxGeometry x="-0.8996" y="-4" relative="1" as="geometry">
            <mxPoint x="-6" y="-9" as="offset" />
          </mxGeometry>
        </mxCell>
        <mxCell id="CLxOIF6qqXhIIG2VLRrW-22" value="*" style="edgeLabel;html=1;align=center;verticalAlign=middle;resizable=0;points=[];" parent="0I9huzyvj9iAl5qBgA_v-68" vertex="1" connectable="0">
          <mxGeometry x="0.8905" y="4" relative="1" as="geometry">
            <mxPoint x="5" y="18" as="offset" />
          </mxGeometry>
        </mxCell>
        <mxCell id="0I9huzyvj9iAl5qBgA_v-51" style="edgeStyle=orthogonalEdgeStyle;rounded=0;orthogonalLoop=1;jettySize=auto;html=1;entryX=0;entryY=0.75;entryDx=0;entryDy=0;endArrow=block;endFill=0;endSize=10;dashed=1;exitX=1;exitY=0.5;exitDx=0;exitDy=0;" parent="1" source="hybcxuACRQcSdlaFhcAP-3" target="jkBxLj6ySRqab1YEZJy3-1" edge="1">
          <mxGeometry relative="1" as="geometry">
            <mxPoint x="455.98" y="611.3219999999999" as="targetPoint" />
            <mxPoint x="380" y="630" as="sourcePoint" />
            <Array as="points">
              <mxPoint x="350" y="623" />
            </Array>
          </mxGeometry>
        </mxCell>
        <mxCell id="0I9huzyvj9iAl5qBgA_v-52" style="edgeStyle=orthogonalEdgeStyle;rounded=0;orthogonalLoop=1;jettySize=auto;html=1;exitX=0.5;exitY=0;exitDx=0;exitDy=0;entryX=0;entryY=1;entryDx=0;entryDy=0;endArrow=block;endFill=0;endSize=10;dashed=1;" parent="1" source="KSTt7rkmtxu4eSQTv1G8-1" target="jkBxLj6ySRqab1YEZJy3-1" edge="1">
          <mxGeometry relative="1" as="geometry">
            <Array as="points">
              <mxPoint x="240" y="730" />
              <mxPoint x="810" y="730" />
            </Array>
            <mxPoint x="155" y="799" as="sourcePoint" />
            <mxPoint x="355" y="627" as="targetPoint" />
          </mxGeometry>
        </mxCell>
        <mxCell id="0I9huzyvj9iAl5qBgA_v-55" style="edgeStyle=orthogonalEdgeStyle;rounded=0;orthogonalLoop=1;jettySize=auto;html=1;entryX=0.5;entryY=1;entryDx=0;entryDy=0;endArrow=block;endFill=0;endSize=10;dashed=1;exitX=0.5;exitY=0;exitDx=0;exitDy=0;" parent="1" source="KSTt7rkmtxu4eSQTv1G8-3" target="jkBxLj6ySRqab1YEZJy3-1" edge="1">
          <mxGeometry relative="1" as="geometry">
            <mxPoint x="425.28" y="639.3240000000001" as="targetPoint" />
            <mxPoint x="425" y="820" as="sourcePoint" />
            <Array as="points">
              <mxPoint x="995" y="750" />
              <mxPoint x="920" y="750" />
            </Array>
          </mxGeometry>
        </mxCell>
        <mxCell id="0I9huzyvj9iAl5qBgA_v-56" style="edgeStyle=orthogonalEdgeStyle;rounded=0;orthogonalLoop=1;jettySize=auto;html=1;exitX=0.5;exitY=0;exitDx=0;exitDy=0;entryX=0.75;entryY=1;entryDx=0;entryDy=0;endArrow=block;endFill=0;endSize=10;dashed=1;" parent="1" source="jkBxLj6ySRqab1YEZJy3-3" target="jkBxLj6ySRqab1YEZJy3-1" edge="1">
          <mxGeometry relative="1" as="geometry">
            <mxPoint x="610" y="820" as="sourcePoint" />
            <mxPoint x="508.5999999999999" y="640.6759999999999" as="targetPoint" />
            <Array as="points">
              <mxPoint x="1355" y="740" />
              <mxPoint x="975" y="740" />
            </Array>
          </mxGeometry>
        </mxCell>
        <mxCell id="0I9huzyvj9iAl5qBgA_v-58" style="edgeStyle=orthogonalEdgeStyle;rounded=0;orthogonalLoop=1;jettySize=auto;html=1;exitX=0.5;exitY=0;exitDx=0;exitDy=0;entryX=0.25;entryY=1;entryDx=0;entryDy=0;endArrow=block;endFill=0;endSize=10;dashed=1;" parent="1" source="KSTt7rkmtxu4eSQTv1G8-2" target="jkBxLj6ySRqab1YEZJy3-1" edge="1">
          <mxGeometry relative="1" as="geometry">
            <mxPoint x="399.94000000000005" y="640.6759999999999" as="targetPoint" />
            <mxPoint x="290" y="820" as="sourcePoint" />
            <Array as="points">
              <mxPoint x="650" y="740" />
              <mxPoint x="865" y="740" />
            </Array>
          </mxGeometry>
        </mxCell>
        <mxCell id="0I9huzyvj9iAl5qBgA_v-61" style="edgeStyle=orthogonalEdgeStyle;rounded=0;orthogonalLoop=1;jettySize=auto;html=1;exitX=1;exitY=0.25;exitDx=0;exitDy=0;entryX=0.5;entryY=1;entryDx=0;entryDy=0;endArrow=none;endFill=0;dashed=1;startArrow=block;startFill=0;endSize=10;startSize=10;" parent="1" source="jkBxLj6ySRqab1YEZJy3-1" target="hybcxuACRQcSdlaFhcAP-2" edge="1">
          <mxGeometry relative="1" as="geometry">
            <mxPoint x="645" y="575" as="sourcePoint" />
            <mxPoint x="810.72" y="414" as="targetPoint" />
            <Array as="points">
              <mxPoint x="1120" y="548" />
              <mxPoint x="1120" y="510" />
              <mxPoint x="1410" y="510" />
              <mxPoint x="1410" y="486" />
            </Array>
          </mxGeometry>
        </mxCell>
        <mxCell id="0I9huzyvj9iAl5qBgA_v-62" style="edgeStyle=orthogonalEdgeStyle;rounded=0;orthogonalLoop=1;jettySize=auto;html=1;entryX=0.75;entryY=0;entryDx=0;entryDy=0;endArrow=block;endFill=0;dashed=1;endSize=10;startSize=10;exitX=0.5;exitY=1;exitDx=0;exitDy=0;" parent="1" source="hybcxuACRQcSdlaFhcAP-1" target="jkBxLj6ySRqab1YEZJy3-1" edge="1">
          <mxGeometry relative="1" as="geometry">
            <mxPoint x="643.3199999999999" y="560.674" as="targetPoint" />
            <mxPoint x="710" y="414.0000000000001" as="sourcePoint" />
            <Array as="points">
              <mxPoint x="1095" y="480" />
              <mxPoint x="975" y="480" />
            </Array>
          </mxGeometry>
        </mxCell>
        <mxCell id="0I9huzyvj9iAl5qBgA_v-64" style="edgeStyle=orthogonalEdgeStyle;rounded=0;orthogonalLoop=1;jettySize=auto;html=1;entryX=0.5;entryY=1;entryDx=0;entryDy=0;startArrow=block;startFill=0;endArrow=none;endFill=0;endSize=10;startSize=10;dashed=1;exitX=0;exitY=0.25;exitDx=0;exitDy=0;" parent="1" source="jkBxLj6ySRqab1YEZJy3-1" target="krfez2YbnhOyo7G0hsVJ-1" edge="1">
          <mxGeometry relative="1" as="geometry">
            <Array as="points">
              <mxPoint x="650" y="548" />
              <mxPoint x="650" y="490" />
              <mxPoint x="383" y="490" />
            </Array>
            <mxPoint x="525" y="562" as="sourcePoint" />
            <mxPoint x="264.5799999999999" y="414.39" as="targetPoint" />
          </mxGeometry>
        </mxCell>
        <mxCell id="KSTt7rkmtxu4eSQTv1G8-6" style="edgeStyle=orthogonalEdgeStyle;rounded=0;orthogonalLoop=1;jettySize=auto;html=1;exitX=1;exitY=1;exitDx=0;exitDy=0;entryX=0.5;entryY=0;entryDx=0;entryDy=0;dashed=1;endArrow=none;endFill=0;startArrow=block;startFill=0;endSize=10;startSize=10;" parent="1" source="jkBxLj6ySRqab1YEZJy3-1" target="jkBxLj6ySRqab1YEZJy3-5" edge="1">
          <mxGeometry relative="1" as="geometry">
            <Array as="points">
              <mxPoint x="1030" y="730" />
              <mxPoint x="1625" y="730" />
              <mxPoint x="1625" y="760" />
            </Array>
            <mxPoint x="1000" y="670" as="sourcePoint" />
            <mxPoint x="1565" y="790" as="targetPoint" />
          </mxGeometry>
        </mxCell>
        <mxCell id="jkBxLj6ySRqab1YEZJy3-1" value="&lt;p style=&quot;margin:0px;margin-top:4px;text-align:center;&quot;&gt;&lt;i&gt;&amp;lt;&amp;lt;Interface&amp;gt;&amp;gt;&lt;/i&gt;&lt;br&gt;&lt;b&gt;Condition&lt;/b&gt;&lt;/p&gt;&lt;hr size=&quot;1&quot;&gt;&lt;p style=&quot;margin:0px;margin-left:4px;&quot;&gt;+ filterRequirements: Requirements&lt;br&gt;+ locations: ArrayType&amp;lt;Locations&amp;gt;&lt;/p&gt;&lt;hr size=&quot;1&quot;&gt;&lt;p style=&quot;margin:0px;margin-left:4px;&quot;&gt;+ &lt;i&gt;setRequirements(): Bool&lt;/i&gt;&lt;/p&gt;&lt;p style=&quot;margin:0px;margin-left:4px;&quot;&gt;+ &lt;i&gt;setLocations(): Bool&lt;/i&gt;&lt;/p&gt;&lt;p style=&quot;margin:0px;margin-left:4px;&quot;&gt;+ &lt;i&gt;loadData(): Bool&lt;/i&gt;&lt;/p&gt;&lt;p style=&quot;margin:0px;margin-left:4px;&quot;&gt;+&amp;nbsp;&lt;i style=&quot;border-color: var(--border-color);&quot;&gt;process(): ArrayType&amp;lt;Locations&amp;gt;&lt;/i&gt;&lt;i&gt;&lt;br&gt;&lt;/i&gt;&lt;/p&gt;" style="verticalAlign=top;align=left;overflow=fill;fontSize=12;fontFamily=Helvetica;html=1;whiteSpace=wrap;" parent="1" vertex="1">
          <mxGeometry x="810" y="510" width="220" height="150" as="geometry" />
        </mxCell>
        <mxCell id="jkBxLj6ySRqab1YEZJy3-2" style="edgeStyle=orthogonalEdgeStyle;rounded=0;orthogonalLoop=1;jettySize=auto;html=1;exitX=0;exitY=0.5;exitDx=0;exitDy=0;entryX=1;entryY=0.75;entryDx=0;entryDy=0;endArrow=block;endFill=0;endSize=10;dashed=1;" parent="1" source="KSTt7rkmtxu4eSQTv1G8-5" target="jkBxLj6ySRqab1YEZJy3-1" edge="1">
          <mxGeometry relative="1" as="geometry">
            <mxPoint x="850" y="625" as="sourcePoint" />
            <Array as="points">
              <mxPoint x="1330" y="623" />
              <mxPoint x="1165" y="623" />
            </Array>
          </mxGeometry>
        </mxCell>
        <mxCell id="krfez2YbnhOyo7G0hsVJ-1" value="&lt;p style=&quot;margin:0px;margin-top:4px;text-align:center;&quot;&gt;&lt;b&gt;BoundingBox&lt;/b&gt;&lt;/p&gt;&lt;hr size=&quot;1&quot;&gt;&lt;p style=&quot;margin:0px;margin-left:4px;&quot;&gt;- BoundingBox: ArrayType&amp;lt;Location&amp;gt;&lt;/p&gt;&lt;hr size=&quot;1&quot;&gt;&lt;p style=&quot;border-color: var(--border-color); margin: 0px 0px 0px 4px;&quot;&gt;+&amp;nbsp;setRequirements(NWCorner, NECorner, SWCorner, SECorner): Bool&lt;/p&gt;&lt;p style=&quot;border-color: var(--border-color); margin: 0px 0px 0px 4px;&quot;&gt;+&amp;nbsp;setRequirements(StartingLocation, Radius): Bool&lt;br&gt;&lt;/p&gt;&lt;p style=&quot;border-color: var(--border-color); margin: 0px 0px 0px 4px;&quot;&gt;+&amp;nbsp;&lt;span style=&quot;border-color: var(--border-color);&quot;&gt;setLocations(ArrayType&amp;lt;Locations&amp;gt;): Bool&lt;/span&gt;&lt;/p&gt;&lt;p style=&quot;margin:0px;margin-left:4px;&quot;&gt;&lt;i style=&quot;border-color: var(--border-color);&quot;&gt;&lt;/i&gt;&lt;/p&gt;&lt;p style=&quot;border-color: var(--border-color); margin: 0px 0px 0px 4px;&quot;&gt;+&amp;nbsp;&lt;span style=&quot;border-color: var(--border-color);&quot;&gt;loadData(): Bool&lt;/span&gt;&lt;/p&gt;&lt;p style=&quot;margin:0px;margin-left:4px;&quot;&gt;&lt;i style=&quot;border-color: var(--border-color);&quot;&gt;+&amp;nbsp;&lt;/i&gt;process(): ArrayType&amp;lt;Locations&amp;gt;&lt;/p&gt;&lt;p style=&quot;margin:0px;margin-left:4px;&quot;&gt;+ getBoundingBox(): ArrayType&amp;lt;Location&amp;gt;&lt;/p&gt;" style="verticalAlign=top;align=left;overflow=fill;fontSize=12;fontFamily=Helvetica;html=1;whiteSpace=wrap;" parent="1" vertex="1">
          <mxGeometry x="235" y="280" width="295" height="166" as="geometry" />
        </mxCell>
        <mxCell id="krfez2YbnhOyo7G0hsVJ-2" value="&lt;p style=&quot;margin:0px;margin-top:4px;text-align:center;&quot;&gt;&lt;b&gt;IsochroneDirections&lt;/b&gt;&lt;/p&gt;&lt;hr size=&quot;1&quot;&gt;&lt;p style=&quot;margin:0px;margin-left:4px;&quot;&gt;- StartingLocation: Location&lt;/p&gt;&lt;p style=&quot;margin:0px;margin-left:4px;&quot;&gt;&lt;span style=&quot;background-color: initial;&quot;&gt;- ReferenceMap: ArrayType&amp;lt;Location, TimeDistance&amp;gt;&lt;/span&gt;&lt;br&gt;&lt;/p&gt;&lt;hr size=&quot;1&quot;&gt;&lt;p style=&quot;border-color: var(--border-color); margin: 0px 0px 0px 4px;&quot;&gt;+&amp;nbsp;setRequirements(StartingLocation, MaximumDriveTime): Bool&lt;/p&gt;&lt;p style=&quot;border-color: var(--border-color); margin: 0px 0px 0px 4px;&quot;&gt;+&amp;nbsp;setLocations(ArrayType&amp;lt;Locations&amp;gt;): Bool&lt;/p&gt;&lt;p style=&quot;border-color: var(--border-color); margin: 0px 0px 0px 4px;&quot;&gt;&lt;i style=&quot;border-color: var(--border-color);&quot;&gt;&lt;/i&gt;&lt;/p&gt;&lt;p style=&quot;margin:0px;margin-left:4px;&quot;&gt;&lt;i style=&quot;border-color: var(--border-color);&quot;&gt;&lt;/i&gt;&lt;/p&gt;&lt;p style=&quot;border-color: var(--border-color); margin: 0px 0px 0px 4px;&quot;&gt;+&amp;nbsp;&lt;span style=&quot;border-color: var(--border-color);&quot;&gt;loadData(): Bool&lt;/span&gt;&lt;/p&gt;&lt;p style=&quot;margin:0px;margin-left:4px;&quot;&gt;&lt;i style=&quot;border-color: var(--border-color);&quot;&gt;+&amp;nbsp;&lt;/i&gt;process(): ArrayType&amp;lt;Locations&amp;gt;&lt;br&gt;&lt;/p&gt;&lt;p style=&quot;margin:0px;margin-left:4px;&quot;&gt;+ getIsochrone(ArrayType&amp;lt;Locations&amp;gt;): ArrayType&amp;lt;Location, TimeDistance&amp;gt;&lt;/p&gt;&lt;p style=&quot;margin:0px;margin-left:4px;&quot;&gt;+ getDirections(Location): Directions&lt;/p&gt;" style="verticalAlign=top;align=left;overflow=fill;fontSize=12;fontFamily=Helvetica;html=1;whiteSpace=wrap;spacingLeft=0;" parent="1" vertex="1">
          <mxGeometry x="540" y="280" width="360" height="161.5" as="geometry" />
        </mxCell>
        <mxCell id="hybcxuACRQcSdlaFhcAP-1" value="&lt;p style=&quot;margin:0px;margin-top:4px;text-align:center;&quot;&gt;&lt;b&gt;LightPollution&lt;/b&gt;&lt;/p&gt;&lt;hr size=&quot;1&quot;&gt;&lt;p style=&quot;margin:0px;margin-left:4px;&quot;&gt;- ReferenceMap: ArrayType&amp;lt;Location, SQM&amp;gt;&lt;/p&gt;&lt;hr size=&quot;1&quot;&gt;&lt;p style=&quot;border-color: var(--border-color); margin: 0px 0px 0px 4px;&quot;&gt;+&amp;nbsp;setRequirements(MinimumSQM): Bool&lt;/p&gt;&lt;p style=&quot;border-color: var(--border-color); margin: 0px 0px 0px 4px;&quot;&gt;+&amp;nbsp;setLocations(ArrayType&amp;lt;Locations&amp;gt;): Bool&lt;/p&gt;&lt;p style=&quot;border-color: var(--border-color); margin: 0px 0px 0px 4px;&quot;&gt;&lt;i style=&quot;border-color: var(--border-color);&quot;&gt;&lt;/i&gt;&lt;/p&gt;&lt;p style=&quot;border-color: var(--border-color); margin: 0px 0px 0px 4px;&quot;&gt;&lt;i style=&quot;border-color: var(--border-color);&quot;&gt;&lt;/i&gt;&lt;/p&gt;&lt;p style=&quot;margin:0px;margin-left:4px;&quot;&gt;&lt;i style=&quot;border-color: var(--border-color);&quot;&gt;&lt;/i&gt;&lt;/p&gt;&lt;p style=&quot;border-color: var(--border-color); margin: 0px 0px 0px 4px;&quot;&gt;+&amp;nbsp;loadData(): Bool&lt;/p&gt;&lt;p style=&quot;margin:0px;margin-left:4px;&quot;&gt;&lt;i style=&quot;border-color: var(--border-color);&quot;&gt;+&amp;nbsp;&lt;/i&gt;process(): ArrayType&amp;lt;Locations&amp;gt;&lt;br&gt;&lt;/p&gt;&lt;p style=&quot;margin:0px;margin-left:4px;&quot;&gt;+ getSQM(ArrayType&amp;lt;Locations&amp;gt;): ArrayType&amp;lt;Location, SQM&amp;gt;&lt;/p&gt;" style="verticalAlign=top;align=left;overflow=fill;fontSize=12;fontFamily=Helvetica;html=1;whiteSpace=wrap;" parent="1" vertex="1">
          <mxGeometry x="940" y="280" width="310" height="144.5" as="geometry" />
        </mxCell>
        <mxCell id="hybcxuACRQcSdlaFhcAP-2" value="&lt;p style=&quot;margin:0px;margin-top:4px;text-align:center;&quot;&gt;&lt;b&gt;AstralEvent&lt;/b&gt;&lt;/p&gt;&lt;hr size=&quot;1&quot;&gt;&lt;p style=&quot;margin:0px;margin-left:4px;&quot;&gt;+ AstralEvents: ArrayType&amp;lt;Event&amp;gt;&lt;/p&gt;&lt;hr size=&quot;1&quot;&gt;&lt;p style=&quot;border-color: var(--border-color); margin: 0px 0px 0px 4px;&quot;&gt;+&amp;nbsp;setRequirements(SunAltitude, SunAzimuth): Bool&lt;/p&gt;&lt;p style=&quot;border-color: var(--border-color); margin: 0px 0px 0px 4px;&quot;&gt;+&amp;nbsp;setRequirements(MoonAltitude, MoonAzimuth): Bool&lt;/p&gt;&lt;p style=&quot;border-color: var(--border-color); margin: 0px 0px 0px 4px;&quot;&gt;+&amp;nbsp;setRequirements(MoonPhase): Bool&lt;/p&gt;&lt;p style=&quot;border-color: var(--border-color); margin: 0px 0px 0px 4px;&quot;&gt;+&amp;nbsp;setRequirements(Eclipse): Bool&lt;/p&gt;&lt;p style=&quot;border-color: var(--border-color); margin: 0px 0px 0px 4px;&quot;&gt;+&amp;nbsp;setRequirements(MaxLimitingMagnitude): Bool&lt;br&gt;&lt;/p&gt;&lt;p style=&quot;border-color: var(--border-color); margin: 0px 0px 0px 4px;&quot;&gt;+&amp;nbsp;setLocations(ArrayType&amp;lt;Locations&amp;gt;): Bool&lt;/p&gt;&lt;p style=&quot;border-color: var(--border-color); margin: 0px 0px 0px 4px;&quot;&gt;&lt;i style=&quot;border-color: var(--border-color);&quot;&gt;&lt;/i&gt;&lt;/p&gt;&lt;p style=&quot;border-color: var(--border-color); margin: 0px 0px 0px 4px;&quot;&gt;&lt;i style=&quot;border-color: var(--border-color);&quot;&gt;&lt;/i&gt;&lt;/p&gt;&lt;p style=&quot;border-color: var(--border-color); margin: 0px 0px 0px 4px;&quot;&gt;&lt;i style=&quot;border-color: var(--border-color);&quot;&gt;&lt;/i&gt;&lt;/p&gt;&lt;p style=&quot;margin:0px;margin-left:4px;&quot;&gt;&lt;i style=&quot;border-color: var(--border-color);&quot;&gt;&lt;/i&gt;&lt;/p&gt;&lt;p style=&quot;border-color: var(--border-color); margin: 0px 0px 0px 4px;&quot;&gt;+&amp;nbsp;loadData(): Bool&lt;/p&gt;&lt;p style=&quot;margin:0px;margin-left:4px;&quot;&gt;&lt;i style=&quot;border-color: var(--border-color);&quot;&gt;+&amp;nbsp;&lt;/i&gt;process(): ArrayType&amp;lt;Locations&amp;gt;&lt;br&gt;&lt;/p&gt;&lt;p style=&quot;margin:0px;margin-left:4px;&quot;&gt;+ getAstralEvent(): ArrayType&amp;lt;Location, DateTime&amp;gt;&lt;/p&gt;&lt;p style=&quot;margin:0px;margin-left:4px;&quot;&gt;+ getEclipses(DateStart, DateEnd): ArrayType&amp;lt;Eclipse&amp;gt;&lt;/p&gt;" style="verticalAlign=top;align=left;overflow=fill;fontSize=12;fontFamily=Helvetica;html=1;whiteSpace=wrap;" parent="1" vertex="1">
          <mxGeometry x="1260" y="280" width="310" height="206" as="geometry" />
        </mxCell>
        <mxCell id="hybcxuACRQcSdlaFhcAP-3" value="&lt;p style=&quot;margin:0px;margin-top:4px;text-align:center;&quot;&gt;&lt;b&gt;StartingLocation&lt;/b&gt;&lt;/p&gt;&lt;hr size=&quot;1&quot;&gt;&lt;p style=&quot;margin:0px;margin-left:4px;&quot;&gt;- StartingLocation: Location&lt;/p&gt;&lt;hr size=&quot;1&quot;&gt;&lt;p style=&quot;margin:0px;margin-left:4px;&quot;&gt;&lt;span style=&quot;border-color: var(--border-color);&quot;&gt;+&amp;nbsp;setRequirements(StartingLocation): Bool&lt;br&gt;&lt;/span&gt;&lt;/p&gt;&lt;p style=&quot;margin:0px;margin-left:4px;&quot;&gt;&lt;span style=&quot;border-color: var(--border-color);&quot;&gt;+&amp;nbsp;setLocations(ArrayType&amp;lt;Locations&amp;gt;): Bool&lt;br&gt;&lt;/span&gt;&lt;/p&gt;&lt;p style=&quot;margin:0px;margin-left:4px;&quot;&gt;&lt;span style=&quot;border-color: var(--border-color);&quot;&gt;+ loadData(): Bool&lt;/span&gt;&lt;/p&gt;&lt;p style=&quot;margin:0px;margin-left:4px;&quot;&gt;&lt;i style=&quot;border-color: var(--border-color);&quot;&gt;+&amp;nbsp;&lt;/i&gt;process(): ArrayType&amp;lt;Locations&amp;gt;&lt;br&gt;&lt;/p&gt;&lt;p style=&quot;margin:0px;margin-left:4px;&quot;&gt;+ getStartingLocation(): Location&lt;/p&gt;" style="verticalAlign=top;align=left;overflow=fill;fontSize=12;fontFamily=Helvetica;html=1;whiteSpace=wrap;" parent="1" vertex="1">
          <mxGeometry x="330" y="553" width="250" height="140" as="geometry" />
        </mxCell>
        <mxCell id="KSTt7rkmtxu4eSQTv1G8-1" value="&lt;p style=&quot;margin:0px;margin-top:4px;text-align:center;&quot;&gt;&lt;b&gt;AstralWeather&lt;/b&gt;&lt;/p&gt;&lt;hr size=&quot;1&quot;&gt;&lt;p style=&quot;margin:0px;margin-left:4px;&quot;&gt;- CloudsReferenceMap: ArrayType&amp;lt;Location, CloudCoverage&amp;gt;&lt;br&gt;&lt;/p&gt;&lt;p style=&quot;margin:0px;margin-left:4px;&quot;&gt;- SeeingReferenceMap: ArrayType&amp;lt;Location, SeeingIndex&amp;gt;&lt;br&gt;&lt;/p&gt;&lt;p style=&quot;margin:0px;margin-left:4px;&quot;&gt;- TransparencyReferenceMap: ArrayType&amp;lt;Location, Transparency&amp;gt;&lt;br&gt;&lt;/p&gt;&lt;hr size=&quot;1&quot;&gt;&lt;p style=&quot;border-color: var(--border-color); margin: 0px 0px 0px 4px;&quot;&gt;+&amp;nbsp;setRequirements(MaxCloudCoverage): Bool&lt;br style=&quot;border-color: var(--border-color);&quot;&gt;&lt;/p&gt;&lt;p style=&quot;border-color: var(--border-color); margin: 0px 0px 0px 4px;&quot;&gt;+&amp;nbsp;setRequirements(MinSeeingIndex): Bool&lt;br&gt;&lt;/p&gt;&lt;p style=&quot;border-color: var(--border-color); margin: 0px 0px 0px 4px;&quot;&gt;+&amp;nbsp;setRequirements(MinTransparency): Bool&lt;br&gt;&lt;/p&gt;&lt;p style=&quot;border-color: var(--border-color); margin: 0px 0px 0px 4px;&quot;&gt;+&amp;nbsp;setLocations(ArrayType&amp;lt;Locations&amp;gt;): Bool&lt;/p&gt;&lt;p style=&quot;border-color: var(--border-color); margin: 0px 0px 0px 4px;&quot;&gt;&lt;i style=&quot;border-color: var(--border-color);&quot;&gt;&lt;/i&gt;&lt;/p&gt;&lt;p style=&quot;border-color: var(--border-color); margin: 0px 0px 0px 4px;&quot;&gt;&lt;i style=&quot;border-color: var(--border-color);&quot;&gt;&lt;/i&gt;&lt;/p&gt;&lt;p style=&quot;border-color: var(--border-color); margin: 0px 0px 0px 4px;&quot;&gt;&lt;i style=&quot;border-color: var(--border-color);&quot;&gt;&lt;/i&gt;&lt;/p&gt;&lt;p style=&quot;border-color: var(--border-color); margin: 0px 0px 0px 4px;&quot;&gt;&lt;i style=&quot;border-color: var(--border-color);&quot;&gt;&lt;/i&gt;&lt;/p&gt;&lt;p style=&quot;margin:0px;margin-left:4px;&quot;&gt;&lt;i style=&quot;border-color: var(--border-color);&quot;&gt;&lt;/i&gt;&lt;/p&gt;&lt;p style=&quot;border-color: var(--border-color); margin: 0px 0px 0px 4px;&quot;&gt;+&amp;nbsp;loadData(): Bool&lt;/p&gt;&lt;p style=&quot;margin:0px;margin-left:4px;&quot;&gt;&lt;i style=&quot;border-color: var(--border-color);&quot;&gt;+&amp;nbsp;&lt;/i&gt;process(): ArrayType&amp;lt;Locations&amp;gt;&lt;/p&gt;&lt;p style=&quot;border-color: var(--border-color); margin: 0px 0px 0px 4px;&quot;&gt;+ getCloudCoverage(ArrayType&amp;lt;Locations&amp;gt;): ArrayType&amp;lt;Location, CloudCoverage&amp;gt;&lt;br style=&quot;border-color: var(--border-color);&quot;&gt;&lt;/p&gt;&lt;p style=&quot;border-color: var(--border-color); margin: 0px 0px 0px 4px;&quot;&gt;+ getSeeingIndex(ArrayType&amp;lt;Locations&amp;gt;): ArrayType&amp;lt;Location, SeeingIndex&amp;gt;&lt;br style=&quot;border-color: var(--border-color);&quot;&gt;&lt;/p&gt;&lt;p style=&quot;border-color: var(--border-color); margin: 0px 0px 0px 4px;&quot;&gt;+ getTransparency(ArrayType&amp;lt;Locations&amp;gt;): ArrayType&amp;lt;Location, Transparency&amp;gt;&lt;/p&gt;" style="verticalAlign=top;align=left;overflow=fill;fontSize=12;fontFamily=Helvetica;html=1;whiteSpace=wrap;" parent="1" vertex="1">
          <mxGeometry x="10" y="760" width="460" height="220" as="geometry" />
        </mxCell>
        <mxCell id="KSTt7rkmtxu4eSQTv1G8-2" value="&lt;p style=&quot;margin:0px;margin-top:4px;text-align:center;&quot;&gt;&lt;b&gt;SunsetSunriseWeather&lt;/b&gt;&lt;/p&gt;&lt;hr size=&quot;1&quot;&gt;&lt;p style=&quot;margin:0px;margin-left:4px;&quot;&gt;- ReferenceMap: ArrayType&amp;lt;Location, SunQuality&amp;gt;&lt;br&gt;&lt;/p&gt;&lt;hr size=&quot;1&quot;&gt;&lt;p style=&quot;border-color: var(--border-color); margin: 0px 0px 0px 4px;&quot;&gt;+&amp;nbsp;setRequirements(MinSunriseQuality): Bool&lt;/p&gt;&lt;p style=&quot;border-color: var(--border-color); margin: 0px 0px 0px 4px;&quot;&gt;+&amp;nbsp;setRequirements(MinSunsetQuality): Bool&lt;br&gt;&lt;/p&gt;&lt;p style=&quot;border-color: var(--border-color); margin: 0px 0px 0px 4px;&quot;&gt;+&amp;nbsp;setLocations(ArrayType&amp;lt;Locations&amp;gt;): Bool&lt;/p&gt;&lt;p style=&quot;border-color: var(--border-color); margin: 0px 0px 0px 4px;&quot;&gt;&lt;i style=&quot;border-color: var(--border-color);&quot;&gt;&lt;/i&gt;&lt;/p&gt;&lt;p style=&quot;border-color: var(--border-color); margin: 0px 0px 0px 4px;&quot;&gt;&lt;i style=&quot;border-color: var(--border-color);&quot;&gt;&lt;/i&gt;&lt;/p&gt;&lt;p style=&quot;border-color: var(--border-color); margin: 0px 0px 0px 4px;&quot;&gt;&lt;i style=&quot;border-color: var(--border-color);&quot;&gt;&lt;/i&gt;&lt;/p&gt;&lt;p style=&quot;border-color: var(--border-color); margin: 0px 0px 0px 4px;&quot;&gt;&lt;i style=&quot;border-color: var(--border-color);&quot;&gt;&lt;/i&gt;&lt;/p&gt;&lt;p style=&quot;border-color: var(--border-color); margin: 0px 0px 0px 4px;&quot;&gt;+&amp;nbsp;loadData(): Bool&lt;/p&gt;&lt;p style=&quot;border-color: var(--border-color); margin: 0px 0px 0px 4px;&quot;&gt;&lt;i style=&quot;border-color: var(--border-color);&quot;&gt;+&amp;nbsp;&lt;/i&gt;process(): ArrayType&amp;lt;Locations&amp;gt;&lt;/p&gt;&lt;p style=&quot;border-color: var(--border-color); margin: 0px 0px 0px 4px;&quot;&gt;+ getSunQuality(ArrayType&amp;lt;Locations&amp;gt;):&amp;nbsp;ArrayType&amp;lt;Location, SunQuality&amp;gt;&lt;br&gt;&lt;/p&gt;&lt;p style=&quot;margin:0px;margin-left:4px;&quot;&gt;&amp;nbsp;&lt;br&gt;&lt;/p&gt;" style="verticalAlign=top;align=left;overflow=fill;fontSize=12;fontFamily=Helvetica;html=1;whiteSpace=wrap;" parent="1" vertex="1">
          <mxGeometry x="480" y="760" width="340" height="160" as="geometry" />
        </mxCell>
        <mxCell id="KSTt7rkmtxu4eSQTv1G8-3" value="&lt;p style=&quot;margin:0px;margin-top:4px;text-align:center;&quot;&gt;&lt;b&gt;Topography&lt;/b&gt;&lt;/p&gt;&lt;hr size=&quot;1&quot;&gt;&lt;p style=&quot;margin:0px;margin-left:4px;&quot;&gt;- ReferenceMap: ArrayType&amp;lt;Location, LandCoverLabel&amp;gt;&lt;br&gt;&lt;/p&gt;&lt;hr size=&quot;1&quot;&gt;&lt;p style=&quot;border-color: var(--border-color); margin: 0px 0px 0px 4px;&quot;&gt;+&amp;nbsp;setRequirements(MinHeight, MaxHeight): Bool&lt;/p&gt;&lt;p style=&quot;border-color: var(--border-color); margin: 0px 0px 0px 4px;&quot;&gt;+ setRequirements(LandCoverLabel, MinCoverage, MaxCoverage, Radius): Bool&lt;/p&gt;&lt;p style=&quot;border-color: var(--border-color); margin: 0px 0px 0px 4px;&quot;&gt;+&amp;nbsp;setLocations(ArrayType&amp;lt;Locations&amp;gt;): Bool&lt;/p&gt;&lt;p style=&quot;border-color: var(--border-color); margin: 0px 0px 0px 4px;&quot;&gt;&lt;i style=&quot;border-color: var(--border-color);&quot;&gt;&lt;/i&gt;&lt;/p&gt;&lt;p style=&quot;border-color: var(--border-color); margin: 0px 0px 0px 4px;&quot;&gt;&lt;i style=&quot;border-color: var(--border-color);&quot;&gt;&lt;/i&gt;&lt;/p&gt;&lt;p style=&quot;border-color: var(--border-color); margin: 0px 0px 0px 4px;&quot;&gt;&lt;i style=&quot;border-color: var(--border-color);&quot;&gt;&lt;/i&gt;&lt;/p&gt;&lt;p style=&quot;border-color: var(--border-color); margin: 0px 0px 0px 4px;&quot;&gt;&lt;i style=&quot;border-color: var(--border-color);&quot;&gt;&lt;/i&gt;&lt;/p&gt;&lt;p style=&quot;border-color: var(--border-color); margin: 0px 0px 0px 4px;&quot;&gt;+&amp;nbsp;loadData(): Bool&lt;/p&gt;&lt;p style=&quot;margin:0px;margin-left:4px;&quot;&gt;&lt;i style=&quot;border-color: var(--border-color);&quot;&gt;+&amp;nbsp;&lt;/i&gt;process(): ArrayType&amp;lt;Locations&amp;gt;&lt;br&gt;&lt;/p&gt;&lt;p style=&quot;margin:0px;margin-left:4px;&quot;&gt;&lt;br&gt;&lt;/p&gt;" style="verticalAlign=top;align=left;overflow=fill;fontSize=12;fontFamily=Helvetica;html=1;whiteSpace=wrap;" parent="1" vertex="1">
          <mxGeometry x="830" y="760" width="330" height="165" as="geometry" />
        </mxCell>
        <mxCell id="MRRBi8v0WiK1ZHQD7KXH-27" style="edgeStyle=orthogonalEdgeStyle;rounded=0;orthogonalLoop=1;jettySize=auto;html=1;exitX=0.5;exitY=1;exitDx=0;exitDy=0;entryX=0.5;entryY=0;entryDx=0;entryDy=0;endArrow=open;endFill=0;dashed=1;" parent="1" source="jkBxLj6ySRqab1YEZJy3-3" target="MRRBi8v0WiK1ZHQD7KXH-25" edge="1">
          <mxGeometry relative="1" as="geometry" />
        </mxCell>
        <mxCell id="MRRBi8v0WiK1ZHQD7KXH-28" value="&amp;lt;&amp;lt;use&amp;gt;&amp;gt;" style="edgeLabel;html=1;align=center;verticalAlign=middle;resizable=0;points=[];" parent="MRRBi8v0WiK1ZHQD7KXH-27" vertex="1" connectable="0">
          <mxGeometry x="-0.2085" y="3" relative="1" as="geometry">
            <mxPoint x="22" as="offset" />
          </mxGeometry>
        </mxCell>
        <mxCell id="jkBxLj6ySRqab1YEZJy3-3" value="&lt;p style=&quot;margin:0px;margin-top:4px;text-align:center;&quot;&gt;&lt;b&gt;ElevationViewshed&lt;/b&gt;&lt;/p&gt;&lt;hr size=&quot;1&quot;&gt;&lt;p style=&quot;margin:0px;margin-left:4px;&quot;&gt;- ReferenceMap: ArrayType&amp;lt;Location, Elevation&amp;gt;&lt;br&gt;&lt;/p&gt;&lt;hr size=&quot;1&quot;&gt;&lt;p style=&quot;border-color: var(--border-color); margin: 0px 0px 0px 4px;&quot;&gt;+&amp;nbsp;setRequirements(IsLocalMinimum, IsLocalMaximum): Bool&lt;/p&gt;&lt;p style=&quot;border-color: var(--border-color); margin: 0px 0px 0px 4px;&quot;&gt;+&amp;nbsp;setRequirements(CanSeeLatitude, CanSeeLongitude, CanSeeAltitude): Bool&lt;br&gt;&lt;/p&gt;&lt;p style=&quot;border-color: var(--border-color); margin: 0px 0px 0px 4px;&quot;&gt;+&amp;nbsp;setRequirements(MinimumViewshedVisible): Bool&lt;br&gt;&lt;/p&gt;&lt;p style=&quot;border-color: var(--border-color); margin: 0px 0px 0px 4px;&quot;&gt;+&amp;nbsp;setLocations(ArrayType&amp;lt;Locations&amp;gt;): Bool&lt;/p&gt;&lt;p style=&quot;border-color: var(--border-color); margin: 0px 0px 0px 4px;&quot;&gt;&lt;i style=&quot;border-color: var(--border-color);&quot;&gt;&lt;/i&gt;&lt;/p&gt;&lt;p style=&quot;border-color: var(--border-color); margin: 0px 0px 0px 4px;&quot;&gt;&lt;i style=&quot;border-color: var(--border-color);&quot;&gt;&lt;/i&gt;&lt;/p&gt;&lt;p style=&quot;border-color: var(--border-color); margin: 0px 0px 0px 4px;&quot;&gt;&lt;i style=&quot;border-color: var(--border-color);&quot;&gt;&lt;/i&gt;&lt;/p&gt;&lt;p style=&quot;border-color: var(--border-color); margin: 0px 0px 0px 4px;&quot;&gt;&lt;i style=&quot;border-color: var(--border-color);&quot;&gt;&lt;/i&gt;&lt;/p&gt;&lt;p style=&quot;margin:0px;margin-left:4px;&quot;&gt;&lt;i style=&quot;border-color: var(--border-color);&quot;&gt;&lt;/i&gt;&lt;/p&gt;&lt;p style=&quot;border-color: var(--border-color); margin: 0px 0px 0px 4px;&quot;&gt;+&amp;nbsp;loadData(): Bool&lt;/p&gt;&lt;p style=&quot;margin:0px;margin-left:4px;&quot;&gt;&lt;i style=&quot;border-color: var(--border-color);&quot;&gt;+&amp;nbsp;&lt;/i&gt;process(): ArrayType&amp;lt;Locations&amp;gt;&lt;/p&gt;" style="verticalAlign=top;align=left;overflow=fill;fontSize=12;fontFamily=Helvetica;html=1;whiteSpace=wrap;" parent="1" vertex="1">
          <mxGeometry x="1170" y="760" width="370" height="165" as="geometry" />
        </mxCell>
        <mxCell id="jkBxLj6ySRqab1YEZJy3-5" value="&lt;p style=&quot;margin:0px;margin-top:4px;text-align:center;&quot;&gt;&lt;b&gt;GeneratedPOIs&lt;/b&gt;&lt;/p&gt;&lt;hr size=&quot;1&quot;&gt;&lt;p style=&quot;margin:0px;margin-left:4px;&quot;&gt;- ReferenceMap: ArrayType&amp;lt;Location, POI&amp;gt;&lt;br&gt;&lt;/p&gt;&lt;hr size=&quot;1&quot;&gt;&lt;p style=&quot;border-color: var(--border-color); margin: 0px 0px 0px 4px;&quot;&gt;+&amp;nbsp;setRequirements(hasPOI, POIquality, radius): Bool&lt;/p&gt;&lt;p style=&quot;border-color: var(--border-color); margin: 0px 0px 0px 4px;&quot;&gt;+&amp;nbsp;setLocations(ArrayType&amp;lt;Locations&amp;gt;): Bool&lt;/p&gt;&lt;p style=&quot;border-color: var(--border-color); margin: 0px 0px 0px 4px;&quot;&gt;&lt;i style=&quot;border-color: var(--border-color);&quot;&gt;&lt;/i&gt;&lt;/p&gt;&lt;p style=&quot;border-color: var(--border-color); margin: 0px 0px 0px 4px;&quot;&gt;&lt;i style=&quot;border-color: var(--border-color);&quot;&gt;&lt;/i&gt;&lt;/p&gt;&lt;p style=&quot;border-color: var(--border-color); margin: 0px 0px 0px 4px;&quot;&gt;&lt;i style=&quot;border-color: var(--border-color);&quot;&gt;&lt;/i&gt;&lt;/p&gt;&lt;p style=&quot;margin:0px;margin-left:4px;&quot;&gt;&lt;i style=&quot;border-color: var(--border-color);&quot;&gt;&lt;/i&gt;&lt;/p&gt;&lt;p style=&quot;border-color: var(--border-color); margin: 0px 0px 0px 4px;&quot;&gt;+&amp;nbsp;loadData(): Bool&lt;/p&gt;&lt;p style=&quot;margin:0px;margin-left:4px;&quot;&gt;&lt;i style=&quot;border-color: var(--border-color);&quot;&gt;+&amp;nbsp;&lt;/i&gt;process(): ArrayType&amp;lt;Locations&amp;gt;&lt;/p&gt;" style="verticalAlign=top;align=left;overflow=fill;fontSize=12;fontFamily=Helvetica;html=1;whiteSpace=wrap;" parent="1" vertex="1">
          <mxGeometry x="1550" y="760" width="290" height="120" as="geometry" />
        </mxCell>
        <mxCell id="KSTt7rkmtxu4eSQTv1G8-5" value="&lt;p style=&quot;margin:0px;margin-top:4px;text-align:center;&quot;&gt;&lt;b&gt;GroundWeather&lt;/b&gt;&lt;/p&gt;&lt;hr size=&quot;1&quot;&gt;&lt;p style=&quot;margin:0px;margin-left:4px;&quot;&gt;- ReferenceMap: ArrayType&amp;lt;Location, ArrayType&amp;lt;Weather&amp;gt;&amp;gt;&lt;br&gt;&lt;/p&gt;&lt;hr size=&quot;1&quot;&gt;&lt;p style=&quot;border-color: var(--border-color); margin: 0px 0px 0px 4px;&quot;&gt;+&amp;nbsp;setRequirements(MinTemp, MaxTemp): Bool&lt;/p&gt;&lt;p style=&quot;border-color: var(--border-color); margin: 0px 0px 0px 4px;&quot;&gt;+&amp;nbsp;setRequirements(MinHumid, MaxHumid): Bool&lt;br&gt;&lt;/p&gt;&lt;p style=&quot;border-color: var(--border-color); margin: 0px 0px 0px 4px;&quot;&gt;+&amp;nbsp;setRequirements(MinDewPt, MaxDewPt): Bool&lt;br&gt;&lt;/p&gt;&lt;p style=&quot;border-color: var(--border-color); margin: 0px 0px 0px 4px;&quot;&gt;+&amp;nbsp;setRequirements(MinRainChance, MaxRainChance): Bool&lt;br&gt;&lt;/p&gt;&lt;p style=&quot;border-color: var(--border-color); margin: 0px 0px 0px 4px;&quot;&gt;+&amp;nbsp;setLocations(ArrayType&amp;lt;Locations&amp;gt;): Bool&lt;/p&gt;&lt;p style=&quot;border-color: var(--border-color); margin: 0px 0px 0px 4px;&quot;&gt;&lt;i style=&quot;border-color: var(--border-color);&quot;&gt;&lt;/i&gt;&lt;/p&gt;&lt;p style=&quot;border-color: var(--border-color); margin: 0px 0px 0px 4px;&quot;&gt;&lt;i style=&quot;border-color: var(--border-color);&quot;&gt;&lt;/i&gt;&lt;/p&gt;&lt;p style=&quot;border-color: var(--border-color); margin: 0px 0px 0px 4px;&quot;&gt;&lt;i style=&quot;border-color: var(--border-color);&quot;&gt;&lt;/i&gt;&lt;/p&gt;&lt;p style=&quot;margin:0px;margin-left:4px;&quot;&gt;&lt;i style=&quot;border-color: var(--border-color);&quot;&gt;&lt;/i&gt;&lt;/p&gt;&lt;p style=&quot;border-color: var(--border-color); margin: 0px 0px 0px 4px;&quot;&gt;+&amp;nbsp;loadData(): Bool&lt;/p&gt;&lt;p style=&quot;margin:0px;margin-left:4px;&quot;&gt;&lt;i style=&quot;border-color: var(--border-color);&quot;&gt;+&amp;nbsp;&lt;/i&gt;process(): ArrayType&amp;lt;Locations&amp;gt;&lt;/p&gt;" style="verticalAlign=top;align=left;overflow=fill;fontSize=12;fontFamily=Helvetica;html=1;whiteSpace=wrap;" parent="1" vertex="1">
          <mxGeometry x="1260" y="540" width="330" height="170" as="geometry" />
        </mxCell>
        <mxCell id="KSTt7rkmtxu4eSQTv1G8-8" style="edgeStyle=orthogonalEdgeStyle;rounded=0;orthogonalLoop=1;jettySize=auto;html=1;exitX=0.5;exitY=1;exitDx=0;exitDy=0;" parent="1" source="krfez2YbnhOyo7G0hsVJ-2" target="krfez2YbnhOyo7G0hsVJ-2" edge="1">
          <mxGeometry relative="1" as="geometry" />
        </mxCell>
        <mxCell id="CLxOIF6qqXhIIG2VLRrW-6" style="edgeStyle=orthogonalEdgeStyle;rounded=0;orthogonalLoop=1;jettySize=auto;html=1;exitX=0.5;exitY=0;exitDx=0;exitDy=0;entryX=0.25;entryY=1;entryDx=0;entryDy=0;endArrow=none;endFill=0;" parent="1" source="AXQaLOeLMbW2LJZ7HspB-1" target="CLxOIF6qqXhIIG2VLRrW-4" edge="1">
          <mxGeometry relative="1" as="geometry" />
        </mxCell>
        <mxCell id="CLxOIF6qqXhIIG2VLRrW-12" value="1" style="edgeLabel;html=1;align=center;verticalAlign=middle;resizable=0;points=[];" parent="CLxOIF6qqXhIIG2VLRrW-6" vertex="1" connectable="0">
          <mxGeometry x="0.9204" relative="1" as="geometry">
            <mxPoint x="14" as="offset" />
          </mxGeometry>
        </mxCell>
        <mxCell id="CLxOIF6qqXhIIG2VLRrW-13" value="1" style="edgeLabel;html=1;align=center;verticalAlign=middle;resizable=0;points=[];" parent="CLxOIF6qqXhIIG2VLRrW-6" vertex="1" connectable="0">
          <mxGeometry x="-0.8491" relative="1" as="geometry">
            <mxPoint x="10" y="2" as="offset" />
          </mxGeometry>
        </mxCell>
        <mxCell id="AXQaLOeLMbW2LJZ7HspB-1" value="&lt;p style=&quot;margin:0px;margin-top:4px;text-align:center;&quot;&gt;&lt;b&gt;DataFilter&lt;/b&gt;&lt;/p&gt;&lt;hr size=&quot;1&quot;&gt;&lt;p style=&quot;margin:0px;margin-left:4px;&quot;&gt;- FilterParameters: Parameters&lt;/p&gt;&lt;p style=&quot;margin:0px;margin-left:4px;&quot;&gt;- Locations: ArrayType&amp;lt;Locations&amp;gt;&lt;/p&gt;&lt;hr size=&quot;1&quot;&gt;&lt;p style=&quot;margin:0px;margin-left:4px;&quot;&gt;+ setParameters(FilterParameters): Bool&lt;/p&gt;&lt;p style=&quot;margin:0px;margin-left:4px;&quot;&gt;+ process(): ArrayType&amp;lt;Locations&amp;gt;&lt;/p&gt;&lt;p style=&quot;margin:0px;margin-left:4px;&quot;&gt;+ convertToKML(): KMLFile&lt;/p&gt;" style="verticalAlign=top;align=left;overflow=fill;fontSize=12;fontFamily=Helvetica;html=1;whiteSpace=wrap;" parent="1" vertex="1">
          <mxGeometry x="805" y="-190" width="230" height="130" as="geometry" />
        </mxCell>
        <mxCell id="AXQaLOeLMbW2LJZ7HspB-4" style="edgeStyle=orthogonalEdgeStyle;rounded=0;orthogonalLoop=1;jettySize=auto;html=1;entryX=1;entryY=0.75;entryDx=0;entryDy=0;endArrow=diamondThin;endFill=0;endSize=12;startSize=12;" parent="1" target="hybcxuACRQcSdlaFhcAP-2" edge="1">
          <mxGeometry relative="1" as="geometry">
            <Array as="points">
              <mxPoint x="1610" y="435" />
            </Array>
            <mxPoint x="1610" y="441" as="sourcePoint" />
          </mxGeometry>
        </mxCell>
        <mxCell id="WQkmtyJig8W7YewXAK9j-5" value="1" style="edgeLabel;html=1;align=center;verticalAlign=middle;resizable=0;points=[];" vertex="1" connectable="0" parent="AXQaLOeLMbW2LJZ7HspB-4">
          <mxGeometry x="0.3685" y="-1" relative="1" as="geometry">
            <mxPoint x="-5" y="17" as="offset" />
          </mxGeometry>
        </mxCell>
        <mxCell id="WQkmtyJig8W7YewXAK9j-6" value="*" style="edgeLabel;html=1;align=center;verticalAlign=middle;resizable=0;points=[];" vertex="1" connectable="0" parent="AXQaLOeLMbW2LJZ7HspB-4">
          <mxGeometry x="-0.3247" y="-3" relative="1" as="geometry">
            <mxPoint y="-11" as="offset" />
          </mxGeometry>
        </mxCell>
        <mxCell id="AXQaLOeLMbW2LJZ7HspB-6" style="edgeStyle=orthogonalEdgeStyle;rounded=0;orthogonalLoop=1;jettySize=auto;html=1;endArrow=none;endFill=0;startArrow=diamondThin;startFill=0;endSize=12;startSize=12;exitX=1;exitY=0.5;exitDx=0;exitDy=0;entryX=0;entryY=0.5;entryDx=0;entryDy=0;" parent="1" source="AXQaLOeLMbW2LJZ7HspB-2" target="AXQaLOeLMbW2LJZ7HspB-5" edge="1">
          <mxGeometry relative="1" as="geometry">
            <mxPoint x="1720" y="690" as="targetPoint" />
          </mxGeometry>
        </mxCell>
        <mxCell id="WQkmtyJig8W7YewXAK9j-7" value="1" style="edgeLabel;html=1;align=center;verticalAlign=middle;resizable=0;points=[];" vertex="1" connectable="0" parent="AXQaLOeLMbW2LJZ7HspB-6">
          <mxGeometry x="-0.0666" y="-2" relative="1" as="geometry">
            <mxPoint x="-7" y="13" as="offset" />
          </mxGeometry>
        </mxCell>
        <mxCell id="WQkmtyJig8W7YewXAK9j-8" value="*" style="edgeLabel;html=1;align=center;verticalAlign=middle;resizable=0;points=[];" vertex="1" connectable="0" parent="AXQaLOeLMbW2LJZ7HspB-6">
          <mxGeometry x="0.4444" y="-2" relative="1" as="geometry">
            <mxPoint y="-13" as="offset" />
          </mxGeometry>
        </mxCell>
        <mxCell id="AXQaLOeLMbW2LJZ7HspB-2" value="&lt;p style=&quot;margin:0px;margin-top:4px;text-align:center;&quot;&gt;&lt;b&gt;Eclipse&lt;/b&gt;&lt;/p&gt;&lt;hr size=&quot;1&quot;&gt;&lt;p style=&quot;margin:0px;margin-left:4px;&quot;&gt;+ name: String&lt;/p&gt;&lt;p style=&quot;margin:0px;margin-left:4px;&quot;&gt;+ position: EclipsePosition&lt;/p&gt;&lt;hr size=&quot;1&quot;&gt;&lt;p style=&quot;margin:0px;margin-left:4px;&quot;&gt;+ getMaxMagnitude(ArrayType&amp;lt;Locations&amp;gt;): ArrayType&amp;lt;Location, EclipsePosition&amp;gt;&lt;/p&gt;&lt;p style=&quot;margin:0px;margin-left:4px;&quot;&gt;+ getDetailsAtLocation(Location): ArrayType&amp;lt;EclipsePosition&amp;gt;&lt;/p&gt;" style="verticalAlign=top;align=left;overflow=fill;fontSize=12;fontFamily=Helvetica;html=1;whiteSpace=wrap;" parent="1" vertex="1">
          <mxGeometry x="1610" y="372.75" width="250" height="137.25" as="geometry" />
        </mxCell>
        <mxCell id="AXQaLOeLMbW2LJZ7HspB-5" value="&lt;p style=&quot;margin:0px;margin-top:4px;text-align:center;&quot;&gt;&lt;b&gt;EclipsePosition&lt;/b&gt;&lt;/p&gt;&lt;hr size=&quot;1&quot;&gt;&lt;p style=&quot;margin:0px;margin-left:4px;&quot;&gt;+ magnitude: Double&lt;/p&gt;&lt;p style=&quot;margin:0px;margin-left:4px;&quot;&gt;+ time: DateTime&lt;/p&gt;&lt;p style=&quot;margin:0px;margin-left:4px;&quot;&gt;+ altitude: Double&lt;/p&gt;&lt;p style=&quot;border-color: var(--border-color); margin: 0px 0px 0px 4px;&quot;&gt;+ azumith: Double&lt;/p&gt;&lt;hr size=&quot;1&quot;&gt;&lt;p style=&quot;margin:0px;margin-left:4px;&quot;&gt;&lt;br&gt;&lt;/p&gt;" style="verticalAlign=top;align=left;overflow=fill;fontSize=12;fontFamily=Helvetica;html=1;whiteSpace=wrap;" parent="1" vertex="1">
          <mxGeometry x="1896" y="386.37" width="160" height="110" as="geometry" />
        </mxCell>
        <mxCell id="MRRBi8v0WiK1ZHQD7KXH-1" style="edgeStyle=orthogonalEdgeStyle;rounded=0;orthogonalLoop=1;jettySize=auto;html=1;exitX=0;exitY=0.5;exitDx=0;exitDy=0;entryX=1;entryY=0.5;entryDx=0;entryDy=0;endArrow=diamondThin;endFill=0;endSize=12;startSize=12;" parent="1" source="MRRBi8v0WiK1ZHQD7KXH-2" target="jkBxLj6ySRqab1YEZJy3-5" edge="1">
          <mxGeometry relative="1" as="geometry">
            <mxPoint x="1560" y="1039.25" as="targetPoint" />
          </mxGeometry>
        </mxCell>
        <mxCell id="WQkmtyJig8W7YewXAK9j-11" value="1" style="edgeLabel;html=1;align=center;verticalAlign=middle;resizable=0;points=[];" vertex="1" connectable="0" parent="MRRBi8v0WiK1ZHQD7KXH-1">
          <mxGeometry x="0.2686" y="-4" relative="1" as="geometry">
            <mxPoint x="-2" y="17" as="offset" />
          </mxGeometry>
        </mxCell>
        <mxCell id="WQkmtyJig8W7YewXAK9j-12" value="*" style="edgeLabel;html=1;align=center;verticalAlign=middle;resizable=0;points=[];" vertex="1" connectable="0" parent="MRRBi8v0WiK1ZHQD7KXH-1">
          <mxGeometry x="-0.1886" relative="1" as="geometry">
            <mxPoint x="5" y="-10" as="offset" />
          </mxGeometry>
        </mxCell>
        <mxCell id="MRRBi8v0WiK1ZHQD7KXH-2" value="&lt;p style=&quot;margin:0px;margin-top:4px;text-align:center;&quot;&gt;&lt;b&gt;POI&lt;/b&gt;&lt;/p&gt;&lt;hr size=&quot;1&quot;&gt;&lt;p style=&quot;margin:0px;margin-left:4px;&quot;&gt;+ name: String&lt;/p&gt;&lt;p style=&quot;margin:0px;margin-left:4px;&quot;&gt;+ details: String&lt;/p&gt;&lt;p style=&quot;margin:0px;margin-left:4px;&quot;&gt;+ link: String&lt;/p&gt;&lt;hr size=&quot;1&quot;&gt;&lt;p style=&quot;margin:0px;margin-left:4px;&quot;&gt;&lt;br&gt;&lt;/p&gt;" style="verticalAlign=top;align=left;overflow=fill;fontSize=12;fontFamily=Helvetica;html=1;whiteSpace=wrap;" parent="1" vertex="1">
          <mxGeometry x="1875" y="775" width="150" height="90" as="geometry" />
        </mxCell>
        <mxCell id="MRRBi8v0WiK1ZHQD7KXH-5" style="edgeStyle=orthogonalEdgeStyle;rounded=0;orthogonalLoop=1;jettySize=auto;html=1;endArrow=none;endFill=0;startArrow=diamondThin;startFill=0;endSize=12;startSize=12;exitX=1;exitY=0.25;exitDx=0;exitDy=0;entryX=0;entryY=0.5;entryDx=0;entryDy=0;" parent="1" source="KSTt7rkmtxu4eSQTv1G8-5" target="MRRBi8v0WiK1ZHQD7KXH-6" edge="1">
          <mxGeometry relative="1" as="geometry">
            <mxPoint x="1480" y="837" as="targetPoint" />
            <mxPoint x="1650" y="580" as="sourcePoint" />
          </mxGeometry>
        </mxCell>
        <mxCell id="WQkmtyJig8W7YewXAK9j-9" value="*" style="edgeLabel;html=1;align=center;verticalAlign=middle;resizable=0;points=[];" vertex="1" connectable="0" parent="MRRBi8v0WiK1ZHQD7KXH-5">
          <mxGeometry x="-0.107" y="-3" relative="1" as="geometry">
            <mxPoint x="9" y="-15" as="offset" />
          </mxGeometry>
        </mxCell>
        <mxCell id="WQkmtyJig8W7YewXAK9j-10" value="1" style="edgeLabel;html=1;align=center;verticalAlign=middle;resizable=0;points=[];" vertex="1" connectable="0" parent="MRRBi8v0WiK1ZHQD7KXH-5">
          <mxGeometry x="-0.5322" y="3" relative="1" as="geometry">
            <mxPoint x="3" y="16" as="offset" />
          </mxGeometry>
        </mxCell>
        <mxCell id="MRRBi8v0WiK1ZHQD7KXH-6" value="&lt;p style=&quot;margin:0px;margin-top:4px;text-align:center;&quot;&gt;&lt;b&gt;Weather&lt;/b&gt;&lt;/p&gt;&lt;hr size=&quot;1&quot;&gt;&lt;p style=&quot;margin:0px;margin-left:4px;&quot;&gt;+ Time: TimeDate&lt;/p&gt;&lt;p style=&quot;margin:0px;margin-left:4px;&quot;&gt;+ Temperature: Double&lt;/p&gt;&lt;p style=&quot;margin:0px;margin-left:4px;&quot;&gt;+ Humidity: Double&lt;/p&gt;&lt;p style=&quot;margin:0px;margin-left:4px;&quot;&gt;+ DewPoint: Double&lt;/p&gt;&lt;p style=&quot;margin:0px;margin-left:4px;&quot;&gt;+ RainChance: Double&lt;/p&gt;&lt;hr size=&quot;1&quot;&gt;&lt;p style=&quot;margin:0px;margin-left:4px;&quot;&gt;&lt;br&gt;&lt;/p&gt;" style="verticalAlign=top;align=left;overflow=fill;fontSize=12;fontFamily=Helvetica;html=1;whiteSpace=wrap;" parent="1" vertex="1">
          <mxGeometry x="1624.5" y="520" width="160" height="118.75" as="geometry" />
        </mxCell>
        <UserObject label="" plantUmlData="{&#xa;  &quot;data&quot;: &quot;@startuml\nnode \&quot;SRTM elevation data\&quot;\n@enduml&quot;,&#xa;  &quot;format&quot;: &quot;svg&quot;&#xa;}" id="MRRBi8v0WiK1ZHQD7KXH-25">
          <mxCell style="shape=image;noLabel=1;verticalAlign=top;aspect=fixed;imageAspect=0;image=data:image/svg+xml,PD94bWwgdmVyc2lvbj0iMS4wIiBlbmNvZGluZz0idXMtYXNjaWkiIHN0YW5kYWxvbmU9Im5vIj8+PHN2ZyB4bWxucz0iaHR0cDovL3d3dy53My5vcmcvMjAwMC9zdmciIHhtbG5zOnhsaW5rPSJodHRwOi8vd3d3LnczLm9yZy8xOTk5L3hsaW5rIiBjb250ZW50U3R5bGVUeXBlPSJ0ZXh0L2NzcyIgaGVpZ2h0PSI2OHB4IiBwcmVzZXJ2ZUFzcGVjdFJhdGlvPSJub25lIiBzdHlsZT0id2lkdGg6MTk3cHg7aGVpZ2h0OjY4cHg7YmFja2dyb3VuZDojRkZGRkZGOyIgdmVyc2lvbj0iMS4xIiB2aWV3Qm94PSIwIDAgMTk3IDY4IiB3aWR0aD0iMTk3cHgiIHpvb21BbmRQYW49Im1hZ25pZnkiPjxkZWZzLz48Zz48IS0tZW50aXR5IFNSVE0gZWxldmF0aW9uIGRhdGEtLT48ZyBpZD0iZWxlbV9TUlRNIGVsZXZhdGlvbiBkYXRhIj48cG9seWdvbiBmaWxsPSIjRjFGMUYxIiBwb2ludHM9IjcsMTcsMTcsNywxODAsNywxODAsNDEuOTg0NCwxNzAsNTEuOTg0NCw3LDUxLjk4NDQsNywxNyIgc3R5bGU9InN0cm9rZTojMTgxODE4O3N0cm9rZS13aWR0aDowLjU7Ii8+PGxpbmUgc3R5bGU9InN0cm9rZTojMTgxODE4O3N0cm9rZS13aWR0aDowLjU7IiB4MT0iMTcwIiB4Mj0iMTgwIiB5MT0iMTciIHkyPSI3Ii8+PGxpbmUgc3R5bGU9InN0cm9rZTojMTgxODE4O3N0cm9rZS13aWR0aDowLjU7IiB4MT0iNyIgeDI9IjE3MCIgeTE9IjE3IiB5Mj0iMTciLz48bGluZSBzdHlsZT0ic3Ryb2tlOiMxODE4MTg7c3Ryb2tlLXdpZHRoOjAuNTsiIHgxPSIxNzAiIHgyPSIxNzAiIHkxPSIxNyIgeTI9IjUxLjk4NDQiLz48dGV4dCBmaWxsPSIjMDAwMDAwIiBmb250LWZhbWlseT0ic2Fucy1zZXJpZiIgZm9udC1zaXplPSIxNCIgbGVuZ3RoQWRqdXN0PSJzcGFjaW5nIiB0ZXh0TGVuZ3RoPSIxMzMiIHg9IjIyIiB5PSI0MC4yMzQ0Ij5TUlRNIGVsZXZhdGlvbiBkYXRhPC90ZXh0PjwvZz48IS0tU1JDPVtveWpGSUxMRzJXdUF5TEw4cEthaklvcDlwQ3pKSTRhaUlMRzIwMDAwXS0tPjwvZz48L3N2Zz4=;" parent="1" vertex="1">
            <mxGeometry x="1256.5" y="960" width="197" height="68" as="geometry" />
          </mxCell>
        </UserObject>
        <mxCell id="MRRBi8v0WiK1ZHQD7KXH-29" style="edgeStyle=orthogonalEdgeStyle;rounded=0;orthogonalLoop=1;jettySize=auto;html=1;exitX=0.25;exitY=1;exitDx=0;exitDy=0;entryX=0.5;entryY=0;entryDx=0;entryDy=0;endArrow=open;endFill=0;dashed=1;" parent="1" source="KSTt7rkmtxu4eSQTv1G8-3" target="MRRBi8v0WiK1ZHQD7KXH-31" edge="1">
          <mxGeometry relative="1" as="geometry">
            <mxPoint x="988.5" y="948.5" as="sourcePoint" />
          </mxGeometry>
        </mxCell>
        <mxCell id="MRRBi8v0WiK1ZHQD7KXH-30" value="&amp;lt;&amp;lt;use&amp;gt;&amp;gt;" style="edgeLabel;html=1;align=center;verticalAlign=middle;resizable=0;points=[];" parent="MRRBi8v0WiK1ZHQD7KXH-29" vertex="1" connectable="0">
          <mxGeometry x="-0.2085" y="3" relative="1" as="geometry">
            <mxPoint x="35" as="offset" />
          </mxGeometry>
        </mxCell>
        <UserObject label="" plantUmlData="{&quot;data&quot;:&quot;@startuml\nnode \&quot;Global Land Cover - SHARE\\n(GLC-SHARE)\&quot;\n@enduml&quot;,&quot;format&quot;:&quot;svg&quot;}" id="MRRBi8v0WiK1ZHQD7KXH-31">
          <mxCell style="shape=image;noLabel=1;verticalAlign=top;aspect=fixed;imageAspect=0;image=data:image/svg+xml,PD94bWwgdmVyc2lvbj0iMS4wIiBlbmNvZGluZz0idXMtYXNjaWkiIHN0YW5kYWxvbmU9Im5vIj8+PHN2ZyB4bWxucz0iaHR0cDovL3d3dy53My5vcmcvMjAwMC9zdmciIHhtbG5zOnhsaW5rPSJodHRwOi8vd3d3LnczLm9yZy8xOTk5L3hsaW5rIiBjb250ZW50U3R5bGVUeXBlPSJ0ZXh0L2NzcyIgaGVpZ2h0PSI4M3B4IiBwcmVzZXJ2ZUFzcGVjdFJhdGlvPSJub25lIiBzdHlsZT0id2lkdGg6MjM5cHg7aGVpZ2h0OjgzcHg7YmFja2dyb3VuZDojRkZGRkZGOyIgdmVyc2lvbj0iMS4xIiB2aWV3Qm94PSIwIDAgMjM5IDgzIiB3aWR0aD0iMjM5cHgiIHpvb21BbmRQYW49Im1hZ25pZnkiPjxkZWZzLz48Zz48IS0tZW50aXR5IEdsb2JhbCBMYW5kIENvdmVyIC0gU0hBUkVcbihHTEMtU0hBUkUpLS0+PGcgaWQ9ImVsZW1fR2xvYmFsIExhbmQgQ292ZXIgLSBTSEFSRVxuKEdMQy1TSEFSRSkiPjxwb2x5Z29uIGZpbGw9IiNGMUYxRjEiIHBvaW50cz0iNywxNywxNyw3LDIyMiw3LDIyMiw1Ni45Njg4LDIxMiw2Ni45Njg4LDcsNjYuOTY4OCw3LDE3IiBzdHlsZT0ic3Ryb2tlOiMxODE4MTg7c3Ryb2tlLXdpZHRoOjAuNTsiLz48bGluZSBzdHlsZT0ic3Ryb2tlOiMxODE4MTg7c3Ryb2tlLXdpZHRoOjAuNTsiIHgxPSIyMTIiIHgyPSIyMjIiIHkxPSIxNyIgeTI9IjciLz48bGluZSBzdHlsZT0ic3Ryb2tlOiMxODE4MTg7c3Ryb2tlLXdpZHRoOjAuNTsiIHgxPSI3IiB4Mj0iMjEyIiB5MT0iMTciIHkyPSIxNyIvPjxsaW5lIHN0eWxlPSJzdHJva2U6IzE4MTgxODtzdHJva2Utd2lkdGg6MC41OyIgeDE9IjIxMiIgeDI9IjIxMiIgeTE9IjE3IiB5Mj0iNjYuOTY4OCIvPjx0ZXh0IGZpbGw9IiMwMDAwMDAiIGZvbnQtZmFtaWx5PSJzYW5zLXNlcmlmIiBmb250LXNpemU9IjE0IiBsZW5ndGhBZGp1c3Q9InNwYWNpbmciIHRleHRMZW5ndGg9IjE3NSIgeD0iMjIiIHk9IjQwLjIzNDQiPkdsb2JhbCBMYW5kIENvdmVyIC0gU0hBUkU8L3RleHQ+PHRleHQgZmlsbD0iIzAwMDAwMCIgZm9udC1mYW1pbHk9InNhbnMtc2VyaWYiIGZvbnQtc2l6ZT0iMTQiIGxlbmd0aEFkanVzdD0ic3BhY2luZyIgdGV4dExlbmd0aD0iNzkiIHg9IjIyIiB5PSI1NS4yMTg4Ij4oR0xDLVNIQVJFKTwvdGV4dD48L2c+PCEtLVNSQz1bb3lqRklMTEdTaV85SnFoQ0tWMTlwNGpIU0N1bElvcklxNUs4emQwQ1NldDlxdDN0U1RPNWlwTUwwMDAwXS0tPjwvZz48L3N2Zz4=;" parent="1" vertex="1">
            <mxGeometry x="793" y="960" width="239" height="83" as="geometry" />
          </mxCell>
        </UserObject>
        <mxCell id="MRRBi8v0WiK1ZHQD7KXH-32" style="edgeStyle=orthogonalEdgeStyle;rounded=0;orthogonalLoop=1;jettySize=auto;html=1;exitX=0.75;exitY=1;exitDx=0;exitDy=0;entryX=0.5;entryY=0;entryDx=0;entryDy=0;endArrow=open;endFill=0;dashed=1;" parent="1" source="KSTt7rkmtxu4eSQTv1G8-3" target="MRRBi8v0WiK1ZHQD7KXH-34" edge="1">
          <mxGeometry relative="1" as="geometry">
            <mxPoint x="1073" y="972" as="sourcePoint" />
          </mxGeometry>
        </mxCell>
        <mxCell id="MRRBi8v0WiK1ZHQD7KXH-33" value="&amp;lt;&amp;lt;use&amp;gt;&amp;gt;" style="edgeLabel;html=1;align=center;verticalAlign=middle;resizable=0;points=[];" parent="MRRBi8v0WiK1ZHQD7KXH-32" vertex="1" connectable="0">
          <mxGeometry x="-0.2085" y="3" relative="1" as="geometry">
            <mxPoint x="-41" y="2" as="offset" />
          </mxGeometry>
        </mxCell>
        <UserObject label="" plantUmlData="{&quot;data&quot;:&quot;@startuml\nnode \&quot;National Land\\nCover Database\&quot;\n@enduml&quot;,&quot;format&quot;:&quot;svg&quot;}" id="MRRBi8v0WiK1ZHQD7KXH-34">
          <mxCell style="shape=image;noLabel=1;verticalAlign=top;aspect=fixed;imageAspect=0;image=data:image/svg+xml,PD94bWwgdmVyc2lvbj0iMS4wIiBlbmNvZGluZz0idXMtYXNjaWkiIHN0YW5kYWxvbmU9Im5vIj8+PHN2ZyB4bWxucz0iaHR0cDovL3d3dy53My5vcmcvMjAwMC9zdmciIHhtbG5zOnhsaW5rPSJodHRwOi8vd3d3LnczLm9yZy8xOTk5L3hsaW5rIiBjb250ZW50U3R5bGVUeXBlPSJ0ZXh0L2NzcyIgaGVpZ2h0PSI4M3B4IiBwcmVzZXJ2ZUFzcGVjdFJhdGlvPSJub25lIiBzdHlsZT0id2lkdGg6MTYycHg7aGVpZ2h0OjgzcHg7YmFja2dyb3VuZDojRkZGRkZGOyIgdmVyc2lvbj0iMS4xIiB2aWV3Qm94PSIwIDAgMTYyIDgzIiB3aWR0aD0iMTYycHgiIHpvb21BbmRQYW49Im1hZ25pZnkiPjxkZWZzLz48Zz48IS0tZW50aXR5IE5hdGlvbmFsIExhbmRcbkNvdmVyIERhdGFiYXNlLS0+PGcgaWQ9ImVsZW1fTmF0aW9uYWwgTGFuZFxuQ292ZXIgRGF0YWJhc2UiPjxwb2x5Z29uIGZpbGw9IiNGMUYxRjEiIHBvaW50cz0iNywxNywxNyw3LDE0NSw3LDE0NSw1Ni45Njg4LDEzNSw2Ni45Njg4LDcsNjYuOTY4OCw3LDE3IiBzdHlsZT0ic3Ryb2tlOiMxODE4MTg7c3Ryb2tlLXdpZHRoOjAuNTsiLz48bGluZSBzdHlsZT0ic3Ryb2tlOiMxODE4MTg7c3Ryb2tlLXdpZHRoOjAuNTsiIHgxPSIxMzUiIHgyPSIxNDUiIHkxPSIxNyIgeTI9IjciLz48bGluZSBzdHlsZT0ic3Ryb2tlOiMxODE4MTg7c3Ryb2tlLXdpZHRoOjAuNTsiIHgxPSI3IiB4Mj0iMTM1IiB5MT0iMTciIHkyPSIxNyIvPjxsaW5lIHN0eWxlPSJzdHJva2U6IzE4MTgxODtzdHJva2Utd2lkdGg6MC41OyIgeDE9IjEzNSIgeDI9IjEzNSIgeTE9IjE3IiB5Mj0iNjYuOTY4OCIvPjx0ZXh0IGZpbGw9IiMwMDAwMDAiIGZvbnQtZmFtaWx5PSJzYW5zLXNlcmlmIiBmb250LXNpemU9IjE0IiBsZW5ndGhBZGp1c3Q9InNwYWNpbmciIHRleHRMZW5ndGg9IjkxIiB4PSIyMiIgeT0iNDAuMjM0NCI+TmF0aW9uYWwgTGFuZDwvdGV4dD48dGV4dCBmaWxsPSIjMDAwMDAwIiBmb250LWZhbWlseT0ic2Fucy1zZXJpZiIgZm9udC1zaXplPSIxNCIgbGVuZ3RoQWRqdXN0PSJzcGFjaW5nIiB0ZXh0TGVuZ3RoPSI5OCIgeD0iMjIiIHk9IjU1LjIxODgiPkNvdmVyIERhdGFiYXNlPC90ZXh0PjwvZz48IS0tU1JDPVtveWpGSUxMR3lhaWlvU3BGSXluSHk0ZENJdWQ5U3l1bElvcklTNGFpSUtuQUI0dkwwVzAwXS0tPjwvZz48L3N2Zz4=;" parent="1" vertex="1">
            <mxGeometry x="1040" y="960" width="162" height="83" as="geometry" />
          </mxCell>
        </UserObject>
        <mxCell id="MRRBi8v0WiK1ZHQD7KXH-35" style="edgeStyle=orthogonalEdgeStyle;rounded=0;orthogonalLoop=1;jettySize=auto;html=1;exitX=0.5;exitY=1;exitDx=0;exitDy=0;entryX=0.5;entryY=0;entryDx=0;entryDy=0;endArrow=open;endFill=0;dashed=1;" parent="1" source="KSTt7rkmtxu4eSQTv1G8-2" target="MRRBi8v0WiK1ZHQD7KXH-37" edge="1">
          <mxGeometry relative="1" as="geometry">
            <mxPoint x="642.5" y="920" as="sourcePoint" />
          </mxGeometry>
        </mxCell>
        <mxCell id="MRRBi8v0WiK1ZHQD7KXH-36" value="&amp;lt;&amp;lt;use&amp;gt;&amp;gt;" style="edgeLabel;html=1;align=center;verticalAlign=middle;resizable=0;points=[];" parent="MRRBi8v0WiK1ZHQD7KXH-35" vertex="1" connectable="0">
          <mxGeometry x="-0.2085" y="3" relative="1" as="geometry">
            <mxPoint x="27" as="offset" />
          </mxGeometry>
        </mxCell>
        <UserObject label="" plantUmlData="{&quot;data&quot;:&quot;@startuml\nnode \&quot;SunsetWX\&quot; #Cyan\n@enduml&quot;,&quot;format&quot;:&quot;svg&quot;}" id="MRRBi8v0WiK1ZHQD7KXH-37">
          <mxCell style="shape=image;noLabel=1;verticalAlign=top;aspect=fixed;imageAspect=0;image=data:image/svg+xml,PD94bWwgdmVyc2lvbj0iMS4wIiBlbmNvZGluZz0idXMtYXNjaWkiIHN0YW5kYWxvbmU9Im5vIj8+PHN2ZyB4bWxucz0iaHR0cDovL3d3dy53My5vcmcvMjAwMC9zdmciIHhtbG5zOnhsaW5rPSJodHRwOi8vd3d3LnczLm9yZy8xOTk5L3hsaW5rIiBjb250ZW50U3R5bGVUeXBlPSJ0ZXh0L2NzcyIgaGVpZ2h0PSI2OHB4IiBwcmVzZXJ2ZUFzcGVjdFJhdGlvPSJub25lIiBzdHlsZT0id2lkdGg6MTIwcHg7aGVpZ2h0OjY4cHg7YmFja2dyb3VuZDojRkZGRkZGOyIgdmVyc2lvbj0iMS4xIiB2aWV3Qm94PSIwIDAgMTIwIDY4IiB3aWR0aD0iMTIwcHgiIHpvb21BbmRQYW49Im1hZ25pZnkiPjxkZWZzLz48Zz48IS0tZW50aXR5IFN1bnNldFdYLS0+PGcgaWQ9ImVsZW1fU3Vuc2V0V1giPjxwb2x5Z29uIGZpbGw9IiMwMEZGRkYiIHBvaW50cz0iNywxNywxNyw3LDEwMyw3LDEwMyw0MS45ODQ0LDkzLDUxLjk4NDQsNyw1MS45ODQ0LDcsMTciIHN0eWxlPSJzdHJva2U6IzE4MTgxODtzdHJva2Utd2lkdGg6MC41OyIvPjxsaW5lIHN0eWxlPSJzdHJva2U6IzE4MTgxODtzdHJva2Utd2lkdGg6MC41OyIgeDE9IjkzIiB4Mj0iMTAzIiB5MT0iMTciIHkyPSI3Ii8+PGxpbmUgc3R5bGU9InN0cm9rZTojMTgxODE4O3N0cm9rZS13aWR0aDowLjU7IiB4MT0iNyIgeDI9IjkzIiB5MT0iMTciIHkyPSIxNyIvPjxsaW5lIHN0eWxlPSJzdHJva2U6IzE4MTgxODtzdHJva2Utd2lkdGg6MC41OyIgeDE9IjkzIiB4Mj0iOTMiIHkxPSIxNyIgeTI9IjUxLjk4NDQiLz48dGV4dCBmaWxsPSIjMDAwMDAwIiBmb250LWZhbWlseT0ic2Fucy1zZXJpZiIgZm9udC1zaXplPSIxNCIgbGVuZ3RoQWRqdXN0PSJzcGFjaW5nIiB0ZXh0TGVuZ3RoPSI1NiIgeD0iMjIiIHk9IjQwLjIzNDQiPlN1bnNldFdYPC90ZXh0PjwvZz48IS0tU1JDPVtveWpGSUxMRzJZeERBcXVqMk96R0tiMXNoYXBDMG0wMF0tLT48L2c+PC9zdmc+;" parent="1" vertex="1">
            <mxGeometry x="590" y="960" width="120" height="68" as="geometry" />
          </mxCell>
        </UserObject>
        <mxCell id="MRRBi8v0WiK1ZHQD7KXH-38" style="edgeStyle=orthogonalEdgeStyle;rounded=0;orthogonalLoop=1;jettySize=auto;html=1;exitX=0.25;exitY=1;exitDx=0;exitDy=0;entryX=0.5;entryY=0;entryDx=0;entryDy=0;endArrow=open;endFill=0;dashed=1;" parent="1" source="KSTt7rkmtxu4eSQTv1G8-1" target="MRRBi8v0WiK1ZHQD7KXH-40" edge="1">
          <mxGeometry relative="1" as="geometry">
            <mxPoint x="240" y="1000" as="sourcePoint" />
          </mxGeometry>
        </mxCell>
        <mxCell id="MRRBi8v0WiK1ZHQD7KXH-39" value="&amp;lt;&amp;lt;use&amp;gt;&amp;gt;" style="edgeLabel;html=1;align=center;verticalAlign=middle;resizable=0;points=[];" parent="MRRBi8v0WiK1ZHQD7KXH-38" vertex="1" connectable="0">
          <mxGeometry x="-0.2085" y="3" relative="1" as="geometry">
            <mxPoint x="-39" y="5" as="offset" />
          </mxGeometry>
        </mxCell>
        <UserObject label="" plantUmlData="{&quot;data&quot;:&quot;@startuml\nnode \&quot;weather.gc.ca /\\nGOCI Data Processing System (GDPS)\&quot; #Cyan\n@enduml&quot;,&quot;format&quot;:&quot;svg&quot;}" id="MRRBi8v0WiK1ZHQD7KXH-40">
          <mxCell style="shape=image;noLabel=1;verticalAlign=top;aspect=fixed;imageAspect=0;image=data:image/svg+xml,PD94bWwgdmVyc2lvbj0iMS4wIiBlbmNvZGluZz0idXMtYXNjaWkiIHN0YW5kYWxvbmU9Im5vIj8+PHN2ZyB4bWxucz0iaHR0cDovL3d3dy53My5vcmcvMjAwMC9zdmciIHhtbG5zOnhsaW5rPSJodHRwOi8vd3d3LnczLm9yZy8xOTk5L3hsaW5rIiBjb250ZW50U3R5bGVUeXBlPSJ0ZXh0L2NzcyIgaGVpZ2h0PSI4M3B4IiBwcmVzZXJ2ZUFzcGVjdFJhdGlvPSJub25lIiBzdHlsZT0id2lkdGg6MzA1cHg7aGVpZ2h0OjgzcHg7YmFja2dyb3VuZDojRkZGRkZGOyIgdmVyc2lvbj0iMS4xIiB2aWV3Qm94PSIwIDAgMzA1IDgzIiB3aWR0aD0iMzA1cHgiIHpvb21BbmRQYW49Im1hZ25pZnkiPjxkZWZzLz48Zz48IS0tZW50aXR5IHdlYXRoZXIuZ2MuY2EgL1xuR09DSSBEYXRhIFByb2Nlc3NpbmcgU3lzdGVtIChHRFBTKS0tPjxnIGlkPSJlbGVtX3dlYXRoZXIuZ2MuY2EgL1xuR09DSSBEYXRhIFByb2Nlc3NpbmcgU3lzdGVtIChHRFBTKSI+PHBvbHlnb24gZmlsbD0iIzAwRkZGRiIgcG9pbnRzPSI3LDE3LDE3LDcsMjg4LDcsMjg4LDU2Ljk2ODgsMjc4LDY2Ljk2ODgsNyw2Ni45Njg4LDcsMTciIHN0eWxlPSJzdHJva2U6IzE4MTgxODtzdHJva2Utd2lkdGg6MC41OyIvPjxsaW5lIHN0eWxlPSJzdHJva2U6IzE4MTgxODtzdHJva2Utd2lkdGg6MC41OyIgeDE9IjI3OCIgeDI9IjI4OCIgeTE9IjE3IiB5Mj0iNyIvPjxsaW5lIHN0eWxlPSJzdHJva2U6IzE4MTgxODtzdHJva2Utd2lkdGg6MC41OyIgeDE9IjciIHgyPSIyNzgiIHkxPSIxNyIgeTI9IjE3Ii8+PGxpbmUgc3R5bGU9InN0cm9rZTojMTgxODE4O3N0cm9rZS13aWR0aDowLjU7IiB4MT0iMjc4IiB4Mj0iMjc4IiB5MT0iMTciIHkyPSI2Ni45Njg4Ii8+PHRleHQgZmlsbD0iIzAwMDAwMCIgZm9udC1mYW1pbHk9InNhbnMtc2VyaWYiIGZvbnQtc2l6ZT0iMTQiIGxlbmd0aEFkanVzdD0ic3BhY2luZyIgdGV4dExlbmd0aD0iMTA2IiB4PSIyMiIgeT0iNDAuMjM0NCI+d2VhdGhlci5nYy5jYSAvPC90ZXh0Pjx0ZXh0IGZpbGw9IiMwMDAwMDAiIGZvbnQtZmFtaWx5PSJzYW5zLXNlcmlmIiBmb250LXNpemU9IjE0IiBsZW5ndGhBZGp1c3Q9InNwYWNpbmciIHRleHRMZW5ndGg9IjI0MSIgeD0iMjIiIHk9IjU1LjIxODgiPkdPQ0kgRGF0YSBQcm9jZXNzaW5nIFN5c3RlbSAoR0RQUyk8L3RleHQ+PC9nPjwhLS1TUkM9W295akZJTExHQWF6REJDYjhCVDlCSnpQQkpiSkdaeWJwenRWc0w3MTlCNGJLMjJaQUpxdWpCaXhDSXJTOGhZbWtJU3JMcTcxdDJHWk1MNTlHVGd2Q3AwQzBdLS0+PC9nPjwvc3ZnPg==;" parent="1" vertex="1">
            <mxGeometry x="10" y="1017" width="305" height="83" as="geometry" />
          </mxCell>
        </UserObject>
        <mxCell id="MRRBi8v0WiK1ZHQD7KXH-42" style="edgeStyle=orthogonalEdgeStyle;rounded=0;orthogonalLoop=1;jettySize=auto;html=1;exitX=0.5;exitY=1;exitDx=0;exitDy=0;entryX=0.5;entryY=0;entryDx=0;entryDy=0;endArrow=open;endFill=0;dashed=1;" parent="1" source="jkBxLj6ySRqab1YEZJy3-5" target="MRRBi8v0WiK1ZHQD7KXH-44" edge="1">
          <mxGeometry relative="1" as="geometry">
            <mxPoint x="1695" y="915" as="sourcePoint" />
          </mxGeometry>
        </mxCell>
        <mxCell id="MRRBi8v0WiK1ZHQD7KXH-43" value="&amp;lt;&amp;lt;use&amp;gt;&amp;gt;" style="edgeLabel;html=1;align=center;verticalAlign=middle;resizable=0;points=[];" parent="MRRBi8v0WiK1ZHQD7KXH-42" vertex="1" connectable="0">
          <mxGeometry x="-0.2085" y="3" relative="1" as="geometry">
            <mxPoint x="22" as="offset" />
          </mxGeometry>
        </mxCell>
        <UserObject label="" plantUmlData="{&quot;data&quot;:&quot;@startuml\nnode \&quot;ShotHotspot\&quot;\n@enduml&quot;,&quot;format&quot;:&quot;svg&quot;}" id="MRRBi8v0WiK1ZHQD7KXH-44">
          <mxCell style="shape=image;noLabel=1;verticalAlign=top;aspect=fixed;imageAspect=0;image=data:image/svg+xml,PD94bWwgdmVyc2lvbj0iMS4wIiBlbmNvZGluZz0idXMtYXNjaWkiIHN0YW5kYWxvbmU9Im5vIj8+PHN2ZyB4bWxucz0iaHR0cDovL3d3dy53My5vcmcvMjAwMC9zdmciIHhtbG5zOnhsaW5rPSJodHRwOi8vd3d3LnczLm9yZy8xOTk5L3hsaW5rIiBjb250ZW50U3R5bGVUeXBlPSJ0ZXh0L2NzcyIgaGVpZ2h0PSI2OHB4IiBwcmVzZXJ2ZUFzcGVjdFJhdGlvPSJub25lIiBzdHlsZT0id2lkdGg6MTQxcHg7aGVpZ2h0OjY4cHg7YmFja2dyb3VuZDojRkZGRkZGOyIgdmVyc2lvbj0iMS4xIiB2aWV3Qm94PSIwIDAgMTQxIDY4IiB3aWR0aD0iMTQxcHgiIHpvb21BbmRQYW49Im1hZ25pZnkiPjxkZWZzLz48Zz48IS0tZW50aXR5IFNob3RIb3RzcG90LS0+PGcgaWQ9ImVsZW1fU2hvdEhvdHNwb3QiPjxwb2x5Z29uIGZpbGw9IiNGMUYxRjEiIHBvaW50cz0iNywxNywxNyw3LDEyNCw3LDEyNCw0MS45ODQ0LDExNCw1MS45ODQ0LDcsNTEuOTg0NCw3LDE3IiBzdHlsZT0ic3Ryb2tlOiMxODE4MTg7c3Ryb2tlLXdpZHRoOjAuNTsiLz48bGluZSBzdHlsZT0ic3Ryb2tlOiMxODE4MTg7c3Ryb2tlLXdpZHRoOjAuNTsiIHgxPSIxMTQiIHgyPSIxMjQiIHkxPSIxNyIgeTI9IjciLz48bGluZSBzdHlsZT0ic3Ryb2tlOiMxODE4MTg7c3Ryb2tlLXdpZHRoOjAuNTsiIHgxPSI3IiB4Mj0iMTE0IiB5MT0iMTciIHkyPSIxNyIvPjxsaW5lIHN0eWxlPSJzdHJva2U6IzE4MTgxODtzdHJva2Utd2lkdGg6MC41OyIgeDE9IjExNCIgeDI9IjExNCIgeTE9IjE3IiB5Mj0iNTEuOTg0NCIvPjx0ZXh0IGZpbGw9IiMwMDAwMDAiIGZvbnQtZmFtaWx5PSJzYW5zLXNlcmlmIiBmb250LXNpemU9IjE0IiBsZW5ndGhBZGp1c3Q9InNwYWNpbmciIHRleHRMZW5ndGg9Ijc3IiB4PSIyMiIgeT0iNDAuMjM0NCI+U2hvdEhvdHNwb3Q8L3RleHQ+PC9nPjwhLS1TUkM9W295akZJTExHMml4OEJfNzhCb2FrbzJ6SDBXMDBdLS0+PC9nPjwvc3ZnPg==;" parent="1" vertex="1">
            <mxGeometry x="1624.5" y="920" width="141" height="68" as="geometry" />
          </mxCell>
        </UserObject>
        <mxCell id="MRRBi8v0WiK1ZHQD7KXH-45" style="edgeStyle=orthogonalEdgeStyle;rounded=0;orthogonalLoop=1;jettySize=auto;html=1;exitX=1;exitY=0.75;exitDx=0;exitDy=0;entryX=0;entryY=0.5;entryDx=0;entryDy=0;endArrow=open;endFill=0;dashed=1;" parent="1" source="KSTt7rkmtxu4eSQTv1G8-5" target="MRRBi8v0WiK1ZHQD7KXH-47" edge="1">
          <mxGeometry relative="1" as="geometry">
            <mxPoint x="1890.5" y="620" as="sourcePoint" />
            <Array as="points">
              <mxPoint x="1620" y="668" />
              <mxPoint x="1620" y="684" />
            </Array>
          </mxGeometry>
        </mxCell>
        <mxCell id="MRRBi8v0WiK1ZHQD7KXH-46" value="&amp;lt;&amp;lt;use&amp;gt;&amp;gt;" style="edgeLabel;html=1;align=center;verticalAlign=middle;resizable=0;points=[];" parent="MRRBi8v0WiK1ZHQD7KXH-45" vertex="1" connectable="0">
          <mxGeometry x="-0.2085" y="3" relative="1" as="geometry">
            <mxPoint x="41" y="-11" as="offset" />
          </mxGeometry>
        </mxCell>
        <UserObject label="" plantUmlData="{&quot;data&quot;:&quot;@startuml\nnode \&quot;Foreca\&quot; #Cyan\n@enduml&quot;,&quot;format&quot;:&quot;svg&quot;}" id="MRRBi8v0WiK1ZHQD7KXH-47">
          <mxCell style="shape=image;noLabel=1;verticalAlign=top;aspect=fixed;imageAspect=0;image=data:image/svg+xml,PD94bWwgdmVyc2lvbj0iMS4wIiBlbmNvZGluZz0idXMtYXNjaWkiIHN0YW5kYWxvbmU9Im5vIj8+PHN2ZyB4bWxucz0iaHR0cDovL3d3dy53My5vcmcvMjAwMC9zdmciIHhtbG5zOnhsaW5rPSJodHRwOi8vd3d3LnczLm9yZy8xOTk5L3hsaW5rIiBjb250ZW50U3R5bGVUeXBlPSJ0ZXh0L2NzcyIgaGVpZ2h0PSI2OHB4IiBwcmVzZXJ2ZUFzcGVjdFJhdGlvPSJub25lIiBzdHlsZT0id2lkdGg6MTA2cHg7aGVpZ2h0OjY4cHg7YmFja2dyb3VuZDojRkZGRkZGOyIgdmVyc2lvbj0iMS4xIiB2aWV3Qm94PSIwIDAgMTA2IDY4IiB3aWR0aD0iMTA2cHgiIHpvb21BbmRQYW49Im1hZ25pZnkiPjxkZWZzLz48Zz48IS0tZW50aXR5IEZvcmVjYS0tPjxnIGlkPSJlbGVtX0ZvcmVjYSI+PHBvbHlnb24gZmlsbD0iIzAwRkZGRiIgcG9pbnRzPSI3LDE3LDE3LDcsODksNyw4OSw0MS45ODQ0LDc5LDUxLjk4NDQsNyw1MS45ODQ0LDcsMTciIHN0eWxlPSJzdHJva2U6IzE4MTgxODtzdHJva2Utd2lkdGg6MC41OyIvPjxsaW5lIHN0eWxlPSJzdHJva2U6IzE4MTgxODtzdHJva2Utd2lkdGg6MC41OyIgeDE9Ijc5IiB4Mj0iODkiIHkxPSIxNyIgeTI9IjciLz48bGluZSBzdHlsZT0ic3Ryb2tlOiMxODE4MTg7c3Ryb2tlLXdpZHRoOjAuNTsiIHgxPSI3IiB4Mj0iNzkiIHkxPSIxNyIgeTI9IjE3Ii8+PGxpbmUgc3R5bGU9InN0cm9rZTojMTgxODE4O3N0cm9rZS13aWR0aDowLjU7IiB4MT0iNzkiIHgyPSI3OSIgeTE9IjE3IiB5Mj0iNTEuOTg0NCIvPjx0ZXh0IGZpbGw9IiMwMDAwMDAiIGZvbnQtZmFtaWx5PSJzYW5zLXNlcmlmIiBmb250LXNpemU9IjE0IiBsZW5ndGhBZGp1c3Q9InNwYWNpbmciIHRleHRMZW5ndGg9IjQyIiB4PSIyMiIgeT0iNDAuMjM0NCI+Rm9yZWNhPC90ZXh0PjwvZz48IS0tU1JDPVtveWpGSUxMR1NpaWxJYXJFTDU5R1RndkNwMEMwXS0tPjwvZz48L3N2Zz4=;" parent="1" vertex="1">
            <mxGeometry x="1790" y="650" width="106" height="68" as="geometry" />
          </mxCell>
        </UserObject>
        <mxCell id="MRRBi8v0WiK1ZHQD7KXH-49" style="edgeStyle=orthogonalEdgeStyle;rounded=0;orthogonalLoop=1;jettySize=auto;html=1;exitX=0.5;exitY=0;exitDx=0;exitDy=0;entryX=0.5;entryY=1;entryDx=0;entryDy=0;endArrow=open;endFill=0;dashed=1;" parent="1" source="hybcxuACRQcSdlaFhcAP-2" target="MRRBi8v0WiK1ZHQD7KXH-51" edge="1">
          <mxGeometry relative="1" as="geometry">
            <mxPoint x="1484" y="230" as="sourcePoint" />
            <Array as="points">
              <mxPoint x="1414" y="280" />
            </Array>
          </mxGeometry>
        </mxCell>
        <mxCell id="MRRBi8v0WiK1ZHQD7KXH-50" value="&amp;lt;&amp;lt;use&amp;gt;&amp;gt;" style="edgeLabel;html=1;align=center;verticalAlign=middle;resizable=0;points=[];" parent="MRRBi8v0WiK1ZHQD7KXH-49" vertex="1" connectable="0">
          <mxGeometry x="-0.2085" y="3" relative="1" as="geometry">
            <mxPoint x="29" as="offset" />
          </mxGeometry>
        </mxCell>
        <UserObject label="" plantUmlData="{&quot;data&quot;:&quot;@startuml\nnode \&quot;/TBD/\&quot;\n@enduml&quot;,&quot;format&quot;:&quot;svg&quot;}" id="MRRBi8v0WiK1ZHQD7KXH-51">
          <mxCell style="shape=image;noLabel=1;verticalAlign=top;aspect=fixed;imageAspect=0;image=data:image/svg+xml,PD94bWwgdmVyc2lvbj0iMS4wIiBlbmNvZGluZz0idXMtYXNjaWkiIHN0YW5kYWxvbmU9Im5vIj8+PHN2ZyB4bWxucz0iaHR0cDovL3d3dy53My5vcmcvMjAwMC9zdmciIHhtbG5zOnhsaW5rPSJodHRwOi8vd3d3LnczLm9yZy8xOTk5L3hsaW5rIiBjb250ZW50U3R5bGVUeXBlPSJ0ZXh0L2NzcyIgaGVpZ2h0PSI2OHB4IiBwcmVzZXJ2ZUFzcGVjdFJhdGlvPSJub25lIiBzdHlsZT0id2lkdGg6OTlweDtoZWlnaHQ6NjhweDtiYWNrZ3JvdW5kOiNGRkZGRkY7IiB2ZXJzaW9uPSIxLjEiIHZpZXdCb3g9IjAgMCA5OSA2OCIgd2lkdGg9Ijk5cHgiIHpvb21BbmRQYW49Im1hZ25pZnkiPjxkZWZzLz48Zz48IS0tZW50aXR5IC9UQkQvLS0+PGcgaWQ9ImVsZW1fL1RCRC8iPjxwb2x5Z29uIGZpbGw9IiNGMUYxRjEiIHBvaW50cz0iNywxNywxNyw3LDgyLDcsODIsNDEuOTg0NCw3Miw1MS45ODQ0LDcsNTEuOTg0NCw3LDE3IiBzdHlsZT0ic3Ryb2tlOiMxODE4MTg7c3Ryb2tlLXdpZHRoOjAuNTsiLz48bGluZSBzdHlsZT0ic3Ryb2tlOiMxODE4MTg7c3Ryb2tlLXdpZHRoOjAuNTsiIHgxPSI3MiIgeDI9IjgyIiB5MT0iMTciIHkyPSI3Ii8+PGxpbmUgc3R5bGU9InN0cm9rZTojMTgxODE4O3N0cm9rZS13aWR0aDowLjU7IiB4MT0iNyIgeDI9IjcyIiB5MT0iMTciIHkyPSIxNyIvPjxsaW5lIHN0eWxlPSJzdHJva2U6IzE4MTgxODtzdHJva2Utd2lkdGg6MC41OyIgeDE9IjcyIiB4Mj0iNzIiIHkxPSIxNyIgeTI9IjUxLjk4NDQiLz48dGV4dCBmaWxsPSIjMDAwMDAwIiBmb250LWZhbWlseT0ic2Fucy1zZXJpZiIgZm9udC1zaXplPSIxNCIgbGVuZ3RoQWRqdXN0PSJzcGFjaW5nIiB0ZXh0TGVuZ3RoPSIzNSIgeD0iMjIiIHk9IjQwLjIzNDQiPi9UQkQvPC90ZXh0PjwvZz48IS0tU1JDPVtveWpGSUxMR3FXem5TajVOMFcwMF0tLT48L2c+PC9zdmc+;" parent="1" vertex="1">
            <mxGeometry x="1365.5" y="160" width="99" height="68" as="geometry" />
          </mxCell>
        </UserObject>
        <mxCell id="MRRBi8v0WiK1ZHQD7KXH-52" style="edgeStyle=orthogonalEdgeStyle;rounded=0;orthogonalLoop=1;jettySize=auto;html=1;exitX=0.5;exitY=0;exitDx=0;exitDy=0;entryX=0.5;entryY=1;entryDx=0;entryDy=0;endArrow=open;endFill=0;dashed=1;" parent="1" source="hybcxuACRQcSdlaFhcAP-1" target="MRRBi8v0WiK1ZHQD7KXH-54" edge="1">
          <mxGeometry relative="1" as="geometry">
            <mxPoint x="1095" y="260" as="sourcePoint" />
            <Array as="points">
              <mxPoint x="1095" y="260" />
              <mxPoint x="1184" y="260" />
            </Array>
          </mxGeometry>
        </mxCell>
        <mxCell id="MRRBi8v0WiK1ZHQD7KXH-53" value="&amp;lt;&amp;lt;use&amp;gt;&amp;gt;" style="edgeLabel;html=1;align=center;verticalAlign=middle;resizable=0;points=[];" parent="MRRBi8v0WiK1ZHQD7KXH-52" connectable="0" vertex="1">
          <mxGeometry x="-0.2085" y="3" relative="1" as="geometry">
            <mxPoint x="7" y="-7" as="offset" />
          </mxGeometry>
        </mxCell>
        <UserObject label="" plantUmlData="{&quot;data&quot;:&quot;@startuml\nnode \&quot;Fabio Falchi et al.,\\nThe new world atlas of\\nartificial night sky brightness.\\nSci. Adv. 2, e1600377(2016).\\nDOI:10.1126/sciadv.1600377\&quot;\n@enduml&quot;,&quot;format&quot;:&quot;svg&quot;}" id="MRRBi8v0WiK1ZHQD7KXH-54">
          <mxCell style="shape=image;noLabel=1;verticalAlign=top;aspect=fixed;imageAspect=0;image=data:image/svg+xml,PD94bWwgdmVyc2lvbj0iMS4wIiBlbmNvZGluZz0idXMtYXNjaWkiIHN0YW5kYWxvbmU9Im5vIj8+PHN2ZyB4bWxucz0iaHR0cDovL3d3dy53My5vcmcvMjAwMC9zdmciIHhtbG5zOnhsaW5rPSJodHRwOi8vd3d3LnczLm9yZy8xOTk5L3hsaW5rIiBjb250ZW50U3R5bGVUeXBlPSJ0ZXh0L2NzcyIgaGVpZ2h0PSIxMjhweCIgcHJlc2VydmVBc3BlY3RSYXRpbz0ibm9uZSIgc3R5bGU9IndpZHRoOjI4OHB4O2hlaWdodDoxMjhweDtiYWNrZ3JvdW5kOiNGRkZGRkY7IiB2ZXJzaW9uPSIxLjEiIHZpZXdCb3g9IjAgMCAyODggMTI4IiB3aWR0aD0iMjg4cHgiIHpvb21BbmRQYW49Im1hZ25pZnkiPjxkZWZzLz48Zz48IS0tZW50aXR5IEZhYmlvIEZhbGNoaSBldCBhbC4sXG5UaGUgbmV3IHdvcmxkIGF0bGFzIG9mXG5hcnRpZmljaWFsIG5pZ2h0IHNreSBicmlnaHRuZXNzLlxuU2NpLiBBZHYuIDIsIGUxNjAwMzc3KDIwMTYpLlxuRE9JOjEwLjExMjYvc2NpYWR2LjE2MDAzNzctLT48ZyBpZD0iZWxlbV9GYWJpbyBGYWxjaGkgZXQgYWwuLFxuVGhlIG5ldyB3b3JsZCBhdGxhcyBvZlxuYXJ0aWZpY2lhbCBuaWdodCBza3kgYnJpZ2h0bmVzcy5cblNjaS4gQWR2LiAyLCBlMTYwMDM3NygyMDE2KS5cbkRPSToxMC4xMTI2L3NjaWFkdi4xNjAwMzc3Ij48cG9seWdvbiBmaWxsPSIjRjFGMUYxIiBwb2ludHM9IjcsMTcsMTcsNywyNzEsNywyNzEsMTAxLjkyMTksMjYxLDExMS45MjE5LDcsMTExLjkyMTksNywxNyIgc3R5bGU9InN0cm9rZTojMTgxODE4O3N0cm9rZS13aWR0aDowLjU7Ii8+PGxpbmUgc3R5bGU9InN0cm9rZTojMTgxODE4O3N0cm9rZS13aWR0aDowLjU7IiB4MT0iMjYxIiB4Mj0iMjcxIiB5MT0iMTciIHkyPSI3Ii8+PGxpbmUgc3R5bGU9InN0cm9rZTojMTgxODE4O3N0cm9rZS13aWR0aDowLjU7IiB4MT0iNyIgeDI9IjI2MSIgeTE9IjE3IiB5Mj0iMTciLz48bGluZSBzdHlsZT0ic3Ryb2tlOiMxODE4MTg7c3Ryb2tlLXdpZHRoOjAuNTsiIHgxPSIyNjEiIHgyPSIyNjEiIHkxPSIxNyIgeTI9IjExMS45MjE5Ii8+PHRleHQgZmlsbD0iIzAwMDAwMCIgZm9udC1mYW1pbHk9InNhbnMtc2VyaWYiIGZvbnQtc2l6ZT0iMTQiIGxlbmd0aEFkanVzdD0ic3BhY2luZyIgdGV4dExlbmd0aD0iMTQwIiB4PSIyMiIgeT0iNDAuMjM0NCI+RmFiaW8gRmFsY2hpIGV0IGFsLiw8L3RleHQ+PHRleHQgZmlsbD0iIzAwMDAwMCIgZm9udC1mYW1pbHk9InNhbnMtc2VyaWYiIGZvbnQtc2l6ZT0iMTQiIGxlbmd0aEFkanVzdD0ic3BhY2luZyIgdGV4dExlbmd0aD0iMTU2IiB4PSIyMiIgeT0iNTUuMjE4OCI+VGhlIG5ldyB3b3JsZCBhdGxhcyBvZjwvdGV4dD48dGV4dCBmaWxsPSIjMDAwMDAwIiBmb250LWZhbWlseT0ic2Fucy1zZXJpZiIgZm9udC1zaXplPSIxNCIgbGVuZ3RoQWRqdXN0PSJzcGFjaW5nIiB0ZXh0TGVuZ3RoPSIyMjQiIHg9IjIyIiB5PSI3MC4yMDMxIj5hcnRpZmljaWFsIG5pZ2h0IHNreSBicmlnaHRuZXNzLjwvdGV4dD48dGV4dCBmaWxsPSIjMDAwMDAwIiBmb250LWZhbWlseT0ic2Fucy1zZXJpZiIgZm9udC1zaXplPSIxNCIgbGVuZ3RoQWRqdXN0PSJzcGFjaW5nIiB0ZXh0TGVuZ3RoPSIxOTgiIHg9IjIyIiB5PSI4NS4xODc1Ij5TY2kuIEFkdi4gMiwgZTE2MDAzNzcoMjAxNikuPC90ZXh0Pjx0ZXh0IGZpbGw9IiMwMDAwMDAiIGZvbnQtZmFtaWx5PSJzYW5zLXNlcmlmIiBmb250LXNpemU9IjE0IiBsZW5ndGhBZGp1c3Q9InNwYWNpbmciIHRleHRMZW5ndGg9IjE4MiIgeD0iMjIiIHk9IjEwMC4xNzE5Ij5ET0k6MTAuMTEyNi9zY2lhZHYuMTYwMDM3NzwvdGV4dD48L2c+PCEtLVNSQz1bQk9tbjJ5OG01MFJfb2FTZFhIQUoyMnN1Mkw5bVNqMm5vc2tJc2VWWDFQOVd5VHpSbVV0V1pmRmEwdmcxOWF1T0FCZzU0SWVlZ2RRS25uOFdPU01RU2xJVzZnYVdwUURHaFpvcE91ZUdWWXVMdlZOMWI3eWVlSEdyb2pzbm1qY181TW9CTzNnalp0c19pemZxLXlyVVJqVUpxU2VPc250QWpqY3dWejl5MEcwMF0tLT48L2c+PC9zdmc+;" parent="1" vertex="1">
            <mxGeometry x="1040" y="100" width="288" height="128" as="geometry" />
          </mxCell>
        </UserObject>
        <UserObject label="" plantUmlData="{&quot;data&quot;:&quot;@startuml\n\nnode \&quot;E C M W F\&quot; #Cyan\n@enduml&quot;,&quot;format&quot;:&quot;svg&quot;}" id="MRRBi8v0WiK1ZHQD7KXH-56">
          <mxCell style="shape=image;noLabel=1;verticalAlign=top;aspect=fixed;imageAspect=0;image=data:image/svg+xml,PD94bWwgdmVyc2lvbj0iMS4wIiBlbmNvZGluZz0idXMtYXNjaWkiIHN0YW5kYWxvbmU9Im5vIj8+PHN2ZyB4bWxucz0iaHR0cDovL3d3dy53My5vcmcvMjAwMC9zdmciIHhtbG5zOnhsaW5rPSJodHRwOi8vd3d3LnczLm9yZy8xOTk5L3hsaW5rIiBjb250ZW50U3R5bGVUeXBlPSJ0ZXh0L2NzcyIgaGVpZ2h0PSI2OHB4IiBwcmVzZXJ2ZUFzcGVjdFJhdGlvPSJub25lIiBzdHlsZT0id2lkdGg6MTI3cHg7aGVpZ2h0OjY4cHg7YmFja2dyb3VuZDojRkZGRkZGOyIgdmVyc2lvbj0iMS4xIiB2aWV3Qm94PSIwIDAgMTI3IDY4IiB3aWR0aD0iMTI3cHgiIHpvb21BbmRQYW49Im1hZ25pZnkiPjxkZWZzLz48Zz48IS0tZW50aXR5IEUgQyBNIFcgRi0tPjxnIGlkPSJlbGVtX0UgQyBNIFcgRiI+PHBvbHlnb24gZmlsbD0iIzAwRkZGRiIgcG9pbnRzPSI3LDE3LDE3LDcsMTEwLDcsMTEwLDQxLjk4NDQsMTAwLDUxLjk4NDQsNyw1MS45ODQ0LDcsMTciIHN0eWxlPSJzdHJva2U6IzE4MTgxODtzdHJva2Utd2lkdGg6MC41OyIvPjxsaW5lIHN0eWxlPSJzdHJva2U6IzE4MTgxODtzdHJva2Utd2lkdGg6MC41OyIgeDE9IjEwMCIgeDI9IjExMCIgeTE9IjE3IiB5Mj0iNyIvPjxsaW5lIHN0eWxlPSJzdHJva2U6IzE4MTgxODtzdHJva2Utd2lkdGg6MC41OyIgeDE9IjciIHgyPSIxMDAiIHkxPSIxNyIgeTI9IjE3Ii8+PGxpbmUgc3R5bGU9InN0cm9rZTojMTgxODE4O3N0cm9rZS13aWR0aDowLjU7IiB4MT0iMTAwIiB4Mj0iMTAwIiB5MT0iMTciIHkyPSI1MS45ODQ0Ii8+PHRleHQgZmlsbD0iIzAwMDAwMCIgZm9udC1mYW1pbHk9InNhbnMtc2VyaWYiIGZvbnQtc2l6ZT0iMTQiIGxlbmd0aEFkanVzdD0ic3BhY2luZyIgdGV4dExlbmd0aD0iNjMiIHg9IjIyIiB5PSI0MC4yMzQ0Ij5FIEMgTSBXIEY8L3RleHQ+PC9nPjwhLS1TUkM9W295akZJTExHU2JMbUxsMUwyNVRtS3I5R1RndkNwMEMwXS0tPjwvZz48L3N2Zz4=;" parent="1" vertex="1">
            <mxGeometry x="340" y="1017" width="127" height="68" as="geometry" />
          </mxCell>
        </UserObject>
        <mxCell id="MRRBi8v0WiK1ZHQD7KXH-57" style="edgeStyle=orthogonalEdgeStyle;rounded=0;orthogonalLoop=1;jettySize=auto;html=1;exitX=0.75;exitY=1;exitDx=0;exitDy=0;entryX=0.5;entryY=0;entryDx=0;entryDy=0;endArrow=open;endFill=0;dashed=1;" parent="1" source="KSTt7rkmtxu4eSQTv1G8-1" target="MRRBi8v0WiK1ZHQD7KXH-56" edge="1">
          <mxGeometry relative="1" as="geometry">
            <mxPoint x="315" y="991" as="sourcePoint" />
            <mxPoint x="353" y="1028" as="targetPoint" />
          </mxGeometry>
        </mxCell>
        <mxCell id="MRRBi8v0WiK1ZHQD7KXH-58" value="&amp;lt;&amp;lt;use&amp;gt;&amp;gt;" style="edgeLabel;html=1;align=center;verticalAlign=middle;resizable=0;points=[];" parent="MRRBi8v0WiK1ZHQD7KXH-57" connectable="0" vertex="1">
          <mxGeometry x="-0.2085" y="3" relative="1" as="geometry">
            <mxPoint x="-44" y="5" as="offset" />
          </mxGeometry>
        </mxCell>
        <mxCell id="MRRBi8v0WiK1ZHQD7KXH-59" style="edgeStyle=orthogonalEdgeStyle;rounded=0;orthogonalLoop=1;jettySize=auto;html=1;exitX=0.5;exitY=0;exitDx=0;exitDy=0;entryX=0.5;entryY=1;entryDx=0;entryDy=0;endArrow=open;endFill=0;dashed=1;" parent="1" source="krfez2YbnhOyo7G0hsVJ-2" target="MRRBi8v0WiK1ZHQD7KXH-61" edge="1">
          <mxGeometry relative="1" as="geometry">
            <mxPoint x="625" y="254" as="sourcePoint" />
            <Array as="points">
              <mxPoint x="720" y="260" />
              <mxPoint x="720" y="260" />
            </Array>
          </mxGeometry>
        </mxCell>
        <mxCell id="MRRBi8v0WiK1ZHQD7KXH-60" value="&amp;lt;&amp;lt;use&amp;gt;&amp;gt;" style="edgeLabel;html=1;align=center;verticalAlign=middle;resizable=0;points=[];" parent="MRRBi8v0WiK1ZHQD7KXH-59" connectable="0" vertex="1">
          <mxGeometry x="-0.2085" y="3" relative="1" as="geometry">
            <mxPoint x="33" y="1" as="offset" />
          </mxGeometry>
        </mxCell>
        <UserObject label="" plantUmlData="{&quot;data&quot;:&quot;@startuml\nnode \&quot;Openrouteservice\&quot;\n@enduml&quot;,&quot;format&quot;:&quot;svg&quot;}" id="MRRBi8v0WiK1ZHQD7KXH-61">
          <mxCell style="shape=image;noLabel=1;verticalAlign=top;aspect=fixed;imageAspect=0;image=data:image/svg+xml,PD94bWwgdmVyc2lvbj0iMS4wIiBlbmNvZGluZz0idXMtYXNjaWkiIHN0YW5kYWxvbmU9Im5vIj8+PHN2ZyB4bWxucz0iaHR0cDovL3d3dy53My5vcmcvMjAwMC9zdmciIHhtbG5zOnhsaW5rPSJodHRwOi8vd3d3LnczLm9yZy8xOTk5L3hsaW5rIiBjb250ZW50U3R5bGVUeXBlPSJ0ZXh0L2NzcyIgaGVpZ2h0PSI2OHB4IiBwcmVzZXJ2ZUFzcGVjdFJhdGlvPSJub25lIiBzdHlsZT0id2lkdGg6MTc2cHg7aGVpZ2h0OjY4cHg7YmFja2dyb3VuZDojRkZGRkZGOyIgdmVyc2lvbj0iMS4xIiB2aWV3Qm94PSIwIDAgMTc2IDY4IiB3aWR0aD0iMTc2cHgiIHpvb21BbmRQYW49Im1hZ25pZnkiPjxkZWZzLz48Zz48IS0tZW50aXR5IE9wZW5yb3V0ZXNlcnZpY2UtLT48ZyBpZD0iZWxlbV9PcGVucm91dGVzZXJ2aWNlIj48cG9seWdvbiBmaWxsPSIjRjFGMUYxIiBwb2ludHM9IjcsMTcsMTcsNywxNTksNywxNTksNDEuOTg0NCwxNDksNTEuOTg0NCw3LDUxLjk4NDQsNywxNyIgc3R5bGU9InN0cm9rZTojMTgxODE4O3N0cm9rZS13aWR0aDowLjU7Ii8+PGxpbmUgc3R5bGU9InN0cm9rZTojMTgxODE4O3N0cm9rZS13aWR0aDowLjU7IiB4MT0iMTQ5IiB4Mj0iMTU5IiB5MT0iMTciIHkyPSI3Ii8+PGxpbmUgc3R5bGU9InN0cm9rZTojMTgxODE4O3N0cm9rZS13aWR0aDowLjU7IiB4MT0iNyIgeDI9IjE0OSIgeTE9IjE3IiB5Mj0iMTciLz48bGluZSBzdHlsZT0ic3Ryb2tlOiMxODE4MTg7c3Ryb2tlLXdpZHRoOjAuNTsiIHgxPSIxNDkiIHgyPSIxNDkiIHkxPSIxNyIgeTI9IjUxLjk4NDQiLz48dGV4dCBmaWxsPSIjMDAwMDAwIiBmb250LWZhbWlseT0ic2Fucy1zZXJpZiIgZm9udC1zaXplPSIxNCIgbGVuZ3RoQWRqdXN0PSJzcGFjaW5nIiB0ZXh0TGVuZ3RoPSIxMTIiIHg9IjIyIiB5PSI0MC4yMzQ0Ij5PcGVucm91dGVzZXJ2aWNlPC90ZXh0PjwvZz48IS0tU1JDPVtveWpGSUxMR3lZejhwSWxBQm9yOUJLdWpBaWpDSmJLMjAwMDBdLS0+PC9nPjwvc3ZnPg==;" parent="1" vertex="1">
            <mxGeometry x="632" y="160" width="176" height="68" as="geometry" />
          </mxCell>
        </UserObject>
        <mxCell id="CLxOIF6qqXhIIG2VLRrW-5" style="edgeStyle=orthogonalEdgeStyle;rounded=0;orthogonalLoop=1;jettySize=auto;html=1;exitX=0.5;exitY=0;exitDx=0;exitDy=0;entryX=0.75;entryY=1;entryDx=0;entryDy=0;endArrow=none;endFill=0;" parent="1" source="RIcj9mbxjOJkV6kVbP6g-1" target="CLxOIF6qqXhIIG2VLRrW-4" edge="1">
          <mxGeometry relative="1" as="geometry" />
        </mxCell>
        <mxCell id="CLxOIF6qqXhIIG2VLRrW-14" value="*" style="edgeLabel;html=1;align=center;verticalAlign=middle;resizable=0;points=[];" parent="CLxOIF6qqXhIIG2VLRrW-5" vertex="1" connectable="0">
          <mxGeometry x="-0.8419" y="2" relative="1" as="geometry">
            <mxPoint x="-8" y="12" as="offset" />
          </mxGeometry>
        </mxCell>
        <mxCell id="CLxOIF6qqXhIIG2VLRrW-15" value="1" style="edgeLabel;html=1;align=center;verticalAlign=middle;resizable=0;points=[];" parent="CLxOIF6qqXhIIG2VLRrW-5" vertex="1" connectable="0">
          <mxGeometry x="0.88" y="2" relative="1" as="geometry">
            <mxPoint x="10" y="-6" as="offset" />
          </mxGeometry>
        </mxCell>
        <mxCell id="CLxOIF6qqXhIIG2VLRrW-7" style="edgeStyle=orthogonalEdgeStyle;rounded=0;orthogonalLoop=1;jettySize=auto;html=1;exitX=0;exitY=0.5;exitDx=0;exitDy=0;entryX=1;entryY=0.5;entryDx=0;entryDy=0;endArrow=none;endFill=0;" parent="1" source="RIcj9mbxjOJkV6kVbP6g-1" target="AXQaLOeLMbW2LJZ7HspB-1" edge="1">
          <mxGeometry relative="1" as="geometry">
            <Array as="points">
              <mxPoint x="1035" y="-140" />
            </Array>
          </mxGeometry>
        </mxCell>
        <mxCell id="CLxOIF6qqXhIIG2VLRrW-8" value="1" style="edgeLabel;html=1;align=center;verticalAlign=middle;resizable=0;points=[];" parent="CLxOIF6qqXhIIG2VLRrW-7" vertex="1" connectable="0">
          <mxGeometry x="0.7416" y="2" relative="1" as="geometry">
            <mxPoint x="-9" y="-12" as="offset" />
          </mxGeometry>
        </mxCell>
        <mxCell id="CLxOIF6qqXhIIG2VLRrW-9" value="*" style="edgeLabel;html=1;align=center;verticalAlign=middle;resizable=0;points=[];" parent="CLxOIF6qqXhIIG2VLRrW-7" vertex="1" connectable="0">
          <mxGeometry x="-0.6157" y="4" relative="1" as="geometry">
            <mxPoint x="44" y="6" as="offset" />
          </mxGeometry>
        </mxCell>
        <mxCell id="RIcj9mbxjOJkV6kVbP6g-1" value="&lt;p style=&quot;margin:0px;margin-top:4px;text-align:center;&quot;&gt;&lt;i&gt;&amp;lt;&amp;lt;Interface&amp;gt;&amp;gt;&lt;/i&gt;&lt;br&gt;&lt;b&gt;Operator&lt;/b&gt;&lt;/p&gt;&lt;hr size=&quot;1&quot;&gt;&lt;p style=&quot;margin:0px;margin-left:4px;&quot;&gt;&lt;br&gt;&lt;/p&gt;&lt;hr size=&quot;1&quot;&gt;&lt;p style=&quot;margin:0px;margin-left:4px;&quot;&gt;+ &lt;i&gt;process(Object, Object): Object&lt;/i&gt;&lt;/p&gt;" style="verticalAlign=top;align=left;overflow=fill;fontSize=12;fontFamily=Helvetica;html=1;whiteSpace=wrap;" parent="1" vertex="1">
          <mxGeometry x="1325" y="-190" width="220" height="100" as="geometry" />
        </mxCell>
        <mxCell id="RIcj9mbxjOJkV6kVbP6g-4" style="edgeStyle=orthogonalEdgeStyle;rounded=0;orthogonalLoop=1;jettySize=auto;html=1;entryX=0.5;entryY=0;entryDx=0;entryDy=0;startArrow=block;startFill=0;endArrow=none;endFill=0;endSize=10;startSize=10;dashed=1;exitX=0.25;exitY=1;exitDx=0;exitDy=0;" parent="1" source="RIcj9mbxjOJkV6kVbP6g-1" target="RIcj9mbxjOJkV6kVbP6g-5" edge="1">
          <mxGeometry relative="1" as="geometry">
            <Array as="points">
              <mxPoint x="1380" y="-50" />
              <mxPoint x="1200" y="-50" />
            </Array>
            <mxPoint x="1560" y="-30" as="sourcePoint" />
            <mxPoint x="1250" y="68" as="targetPoint" />
          </mxGeometry>
        </mxCell>
        <mxCell id="RIcj9mbxjOJkV6kVbP6g-5" value="&lt;p style=&quot;margin:0px;margin-top:4px;text-align:center;&quot;&gt;&lt;b&gt;AND&lt;/b&gt;&lt;/p&gt;&lt;hr size=&quot;1&quot;&gt;&lt;p style=&quot;margin:0px;margin-left:4px;&quot;&gt;&lt;br&gt;&lt;/p&gt;&lt;hr size=&quot;1&quot;&gt;&lt;p style=&quot;margin:0px;margin-left:4px;&quot;&gt;&lt;span style=&quot;border-color: var(--border-color);&quot;&gt;+ process(ExistingObject, AndObject): Object&lt;/span&gt;&lt;/p&gt;" style="verticalAlign=top;align=left;overflow=fill;fontSize=12;fontFamily=Helvetica;html=1;whiteSpace=wrap;" parent="1" vertex="1">
          <mxGeometry x="1090" width="220" height="90" as="geometry" />
        </mxCell>
        <mxCell id="RIcj9mbxjOJkV6kVbP6g-7" style="edgeStyle=orthogonalEdgeStyle;rounded=0;orthogonalLoop=1;jettySize=auto;html=1;exitX=0.5;exitY=0;exitDx=0;exitDy=0;entryX=0.5;entryY=1;entryDx=0;entryDy=0;endSize=10;startSize=10;dashed=1;endArrow=block;endFill=0;" parent="1" source="RIcj9mbxjOJkV6kVbP6g-6" target="RIcj9mbxjOJkV6kVbP6g-1" edge="1">
          <mxGeometry relative="1" as="geometry" />
        </mxCell>
        <mxCell id="RIcj9mbxjOJkV6kVbP6g-6" value="&lt;p style=&quot;margin:0px;margin-top:4px;text-align:center;&quot;&gt;&lt;b&gt;NOT&lt;/b&gt;&lt;/p&gt;&lt;hr size=&quot;1&quot;&gt;&lt;p style=&quot;margin:0px;margin-left:4px;&quot;&gt;&lt;br&gt;&lt;/p&gt;&lt;hr size=&quot;1&quot;&gt;&lt;p style=&quot;margin:0px;margin-left:4px;&quot;&gt;&lt;span style=&quot;border-color: var(--border-color);&quot;&gt;+ process(ExistingObject, NotObject): Object&lt;/span&gt;&lt;/p&gt;" style="verticalAlign=top;align=left;overflow=fill;fontSize=12;fontFamily=Helvetica;html=1;whiteSpace=wrap;" parent="1" vertex="1">
          <mxGeometry x="1325" width="220" height="90" as="geometry" />
        </mxCell>
        <mxCell id="RIcj9mbxjOJkV6kVbP6g-9" style="edgeStyle=orthogonalEdgeStyle;rounded=0;orthogonalLoop=1;jettySize=auto;html=1;exitX=0.5;exitY=0;exitDx=0;exitDy=0;entryX=0.75;entryY=1;entryDx=0;entryDy=0;endArrow=block;endFill=0;endSize=10;dashed=1;" parent="1" source="RIcj9mbxjOJkV6kVbP6g-8" target="RIcj9mbxjOJkV6kVbP6g-1" edge="1">
          <mxGeometry relative="1" as="geometry" />
        </mxCell>
        <mxCell id="RIcj9mbxjOJkV6kVbP6g-8" value="&lt;p style=&quot;margin:0px;margin-top:4px;text-align:center;&quot;&gt;&lt;b&gt;Intersect&lt;/b&gt;&lt;/p&gt;&lt;hr size=&quot;1&quot;&gt;&lt;p style=&quot;margin:0px;margin-left:4px;&quot;&gt;&lt;br&gt;&lt;/p&gt;&lt;hr size=&quot;1&quot;&gt;&lt;p style=&quot;margin:0px;margin-left:4px;&quot;&gt;&lt;span style=&quot;border-color: var(--border-color);&quot;&gt;+ process(ExistingObject, IntersectObject): Object&lt;/span&gt;&lt;/p&gt;" style="verticalAlign=top;align=left;overflow=fill;fontSize=12;fontFamily=Helvetica;html=1;whiteSpace=wrap;" parent="1" vertex="1">
          <mxGeometry x="1560" width="220" height="90" as="geometry" />
        </mxCell>
        <mxCell id="vPTvXPMnvIrvGecdpji0-2" style="edgeStyle=orthogonalEdgeStyle;rounded=0;orthogonalLoop=1;jettySize=auto;html=1;exitX=0;exitY=0.5;exitDx=0;exitDy=0;entryX=0.75;entryY=0;entryDx=0;entryDy=0;endSize=12;endArrow=diamondThin;endFill=0;startSize=12;" parent="1" source="vPTvXPMnvIrvGecdpji0-1" target="hybcxuACRQcSdlaFhcAP-2" edge="1">
          <mxGeometry relative="1" as="geometry" />
        </mxCell>
        <mxCell id="WQkmtyJig8W7YewXAK9j-1" value="*" style="edgeLabel;html=1;align=center;verticalAlign=middle;resizable=0;points=[];" vertex="1" connectable="0" parent="vPTvXPMnvIrvGecdpji0-2">
          <mxGeometry x="-0.6966" y="-1" relative="1" as="geometry">
            <mxPoint x="19" y="-10" as="offset" />
          </mxGeometry>
        </mxCell>
        <mxCell id="WQkmtyJig8W7YewXAK9j-2" value="1" style="edgeLabel;html=1;align=center;verticalAlign=middle;resizable=0;points=[];" vertex="1" connectable="0" parent="vPTvXPMnvIrvGecdpji0-2">
          <mxGeometry x="0.68" y="3" relative="1" as="geometry">
            <mxPoint x="5" y="11" as="offset" />
          </mxGeometry>
        </mxCell>
        <mxCell id="vPTvXPMnvIrvGecdpji0-1" value="&lt;p style=&quot;margin:0px;margin-top:4px;text-align:center;&quot;&gt;&lt;b&gt;SunPosition&lt;/b&gt;&lt;/p&gt;&lt;hr size=&quot;1&quot;&gt;&lt;p style=&quot;margin:0px;margin-left:4px;&quot;&gt;+ time: DateTime&lt;br&gt;&lt;/p&gt;&lt;p style=&quot;margin:0px;margin-left:4px;&quot;&gt;+ altitude: Double&lt;/p&gt;&lt;p style=&quot;margin:0px;margin-left:4px;&quot;&gt;+ azumith: Double&lt;/p&gt;&lt;hr size=&quot;1&quot;&gt;&lt;p style=&quot;margin:0px;margin-left:4px;&quot;&gt;&lt;br&gt;&lt;/p&gt;" style="verticalAlign=top;align=left;overflow=fill;fontSize=12;fontFamily=Helvetica;html=1;whiteSpace=wrap;" parent="1" vertex="1">
          <mxGeometry x="1610" y="160" width="160" height="90" as="geometry" />
        </mxCell>
        <mxCell id="vPTvXPMnvIrvGecdpji0-7" style="edgeStyle=orthogonalEdgeStyle;rounded=0;orthogonalLoop=1;jettySize=auto;html=1;exitX=0;exitY=0.5;exitDx=0;exitDy=0;entryX=1;entryY=0.25;entryDx=0;entryDy=0;endArrow=diamondThin;endFill=0;endSize=12;startSize=12;" parent="1" source="vPTvXPMnvIrvGecdpji0-6" target="hybcxuACRQcSdlaFhcAP-2" edge="1">
          <mxGeometry relative="1" as="geometry">
            <Array as="points">
              <mxPoint x="1590" y="310" />
              <mxPoint x="1590" y="332" />
            </Array>
          </mxGeometry>
        </mxCell>
        <mxCell id="WQkmtyJig8W7YewXAK9j-3" value="*" style="edgeLabel;html=1;align=center;verticalAlign=middle;resizable=0;points=[];" vertex="1" connectable="0" parent="vPTvXPMnvIrvGecdpji0-7">
          <mxGeometry x="-0.5057" y="-1" relative="1" as="geometry">
            <mxPoint x="5" y="-9" as="offset" />
          </mxGeometry>
        </mxCell>
        <mxCell id="WQkmtyJig8W7YewXAK9j-4" value="1" style="edgeLabel;html=1;align=center;verticalAlign=middle;resizable=0;points=[];" vertex="1" connectable="0" parent="vPTvXPMnvIrvGecdpji0-7">
          <mxGeometry x="0.2748" y="1" relative="1" as="geometry">
            <mxPoint x="-11" y="21" as="offset" />
          </mxGeometry>
        </mxCell>
        <mxCell id="vPTvXPMnvIrvGecdpji0-6" value="&lt;p style=&quot;margin:0px;margin-top:4px;text-align:center;&quot;&gt;&lt;b&gt;MoonPosition&lt;/b&gt;&lt;/p&gt;&lt;hr size=&quot;1&quot;&gt;&lt;p style=&quot;margin:0px;margin-left:4px;&quot;&gt;&lt;/p&gt;&amp;nbsp;+ time: DateTime&lt;p style=&quot;margin:0px;margin-left:4px;&quot;&gt;+ altitude: Double&lt;/p&gt;&lt;p style=&quot;margin:0px;margin-left:4px;&quot;&gt;+ azumith: Double&lt;/p&gt;&lt;p style=&quot;margin:0px;margin-left:4px;&quot;&gt;+ limitingMagnitude: Double&lt;/p&gt;&lt;hr size=&quot;1&quot;&gt;&lt;p style=&quot;margin:0px;margin-left:4px;&quot;&gt;&lt;br&gt;&lt;/p&gt;" style="verticalAlign=top;align=left;overflow=fill;fontSize=12;fontFamily=Helvetica;html=1;whiteSpace=wrap;" parent="1" vertex="1">
          <mxGeometry x="1610" y="260" width="160" height="100" as="geometry" />
        </mxCell>
        <mxCell id="CLxOIF6qqXhIIG2VLRrW-3" style="edgeStyle=orthogonalEdgeStyle;rounded=0;orthogonalLoop=1;jettySize=auto;html=1;exitX=0;exitY=0;exitDx=130;exitDy=35.5;exitPerimeter=0;entryX=0;entryY=0.5;entryDx=0;entryDy=0;endArrow=none;endFill=0;dashed=1;" parent="1" source="CLxOIF6qqXhIIG2VLRrW-2" target="AXQaLOeLMbW2LJZ7HspB-1" edge="1">
          <mxGeometry relative="1" as="geometry" />
        </mxCell>
        <mxCell id="CLxOIF6qqXhIIG2VLRrW-2" value="Pass DataFilter pointers of Conditions" style="shape=note2;boundedLbl=1;whiteSpace=wrap;html=1;size=11;verticalAlign=top;align=center;" parent="1" vertex="1">
          <mxGeometry x="630" y="-160" width="130" height="60" as="geometry" />
        </mxCell>
        <mxCell id="CLxOIF6qqXhIIG2VLRrW-24" style="edgeStyle=orthogonalEdgeStyle;rounded=0;orthogonalLoop=1;jettySize=auto;html=1;exitX=1;exitY=0.5;exitDx=0;exitDy=0;entryX=0;entryY=0.5;entryDx=0;entryDy=0;endArrow=none;endFill=0;" parent="1" source="CLxOIF6qqXhIIG2VLRrW-4" target="CLxOIF6qqXhIIG2VLRrW-23" edge="1">
          <mxGeometry relative="1" as="geometry" />
        </mxCell>
        <mxCell id="CLxOIF6qqXhIIG2VLRrW-28" value="1" style="edgeLabel;html=1;align=center;verticalAlign=middle;resizable=0;points=[];" parent="CLxOIF6qqXhIIG2VLRrW-24" vertex="1" connectable="0">
          <mxGeometry x="0.3709" y="-3" relative="1" as="geometry">
            <mxPoint x="3" y="12" as="offset" />
          </mxGeometry>
        </mxCell>
        <mxCell id="CLxOIF6qqXhIIG2VLRrW-29" value="1" style="edgeLabel;html=1;align=center;verticalAlign=middle;resizable=0;points=[];" parent="CLxOIF6qqXhIIG2VLRrW-24" vertex="1" connectable="0">
          <mxGeometry x="-0.6473" y="-1" relative="1" as="geometry">
            <mxPoint y="-16" as="offset" />
          </mxGeometry>
        </mxCell>
        <mxCell id="CLxOIF6qqXhIIG2VLRrW-4" value="&lt;p style=&quot;margin:0px;margin-top:4px;text-align:center;&quot;&gt;&lt;b&gt;UI&lt;/b&gt;&lt;/p&gt;&lt;hr size=&quot;1&quot;&gt;&lt;p style=&quot;margin:0px;margin-left:4px;&quot;&gt;- dataFilter : DataFilter&lt;br&gt;&lt;/p&gt;&lt;hr size=&quot;1&quot;&gt;&lt;p style=&quot;margin:0px;margin-left:4px;&quot;&gt;- getPossibleConditions() : ArrayType&amp;lt;Condition&amp;gt;&lt;/p&gt;&lt;p style=&quot;margin:0px;margin-left:4px;&quot;&gt;- process() : ArrayType&amp;lt;Locations&amp;gt;&lt;/p&gt;&lt;p style=&quot;margin:0px;margin-left:4px;&quot;&gt;- saveToKML() : Bool&lt;/p&gt;" style="verticalAlign=top;align=left;overflow=fill;fontSize=12;fontFamily=Helvetica;html=1;whiteSpace=wrap;" parent="1" vertex="1">
          <mxGeometry x="1028.5" y="-380" width="311" height="130" as="geometry" />
        </mxCell>
        <mxCell id="CLxOIF6qqXhIIG2VLRrW-18" style="edgeStyle=orthogonalEdgeStyle;rounded=0;orthogonalLoop=1;jettySize=auto;html=1;exitX=1;exitY=0.5;exitDx=0;exitDy=0;entryX=0;entryY=0.5;entryDx=0;entryDy=0;endArrow=diamondThin;endFill=0;endSize=12;startSize=12;" parent="1" source="CLxOIF6qqXhIIG2VLRrW-17" target="CLxOIF6qqXhIIG2VLRrW-4" edge="1">
          <mxGeometry relative="1" as="geometry" />
        </mxCell>
        <mxCell id="CLxOIF6qqXhIIG2VLRrW-19" value="*" style="edgeLabel;html=1;align=center;verticalAlign=middle;resizable=0;points=[];" parent="CLxOIF6qqXhIIG2VLRrW-18" vertex="1" connectable="0">
          <mxGeometry x="-0.4215" y="-3" relative="1" as="geometry">
            <mxPoint x="-7" y="-18" as="offset" />
          </mxGeometry>
        </mxCell>
        <mxCell id="CLxOIF6qqXhIIG2VLRrW-20" value="1" style="edgeLabel;html=1;align=center;verticalAlign=middle;resizable=0;points=[];" parent="CLxOIF6qqXhIIG2VLRrW-18" vertex="1" connectable="0">
          <mxGeometry x="0.6407" y="1" relative="1" as="geometry">
            <mxPoint y="16" as="offset" />
          </mxGeometry>
        </mxCell>
        <mxCell id="CLxOIF6qqXhIIG2VLRrW-17" value="&lt;p style=&quot;margin:0px;margin-top:4px;text-align:center;&quot;&gt;&lt;b&gt;DataField&lt;/b&gt;&lt;/p&gt;&lt;hr size=&quot;1&quot;&gt;&lt;p style=&quot;margin:0px;margin-left:4px;&quot;&gt;+ InputType : Object&lt;br&gt;&lt;/p&gt;&lt;p style=&quot;margin:0px;margin-left:4px;&quot;&gt;+ Requirements : Object&lt;/p&gt;&lt;hr size=&quot;1&quot;&gt;&lt;p style=&quot;margin:0px;margin-left:4px;&quot;&gt;+ render() : Object&lt;/p&gt;&lt;p style=&quot;margin:0px;margin-left:4px;&quot;&gt;+ checkInput() : Bool&lt;/p&gt;" style="verticalAlign=top;align=left;overflow=fill;fontSize=12;fontFamily=Helvetica;html=1;whiteSpace=wrap;" parent="1" vertex="1">
          <mxGeometry x="740" y="-370" width="230" height="110" as="geometry" />
        </mxCell>
        <mxCell id="CLxOIF6qqXhIIG2VLRrW-23" value="&lt;p style=&quot;margin:0px;margin-top:4px;text-align:center;&quot;&gt;&lt;b&gt;LocationDisplay&lt;/b&gt;&lt;/p&gt;&lt;hr size=&quot;1&quot;&gt;&lt;p style=&quot;margin:0px;margin-left:4px;&quot;&gt;+ Locations : ArrayType&amp;lt;Location&amp;gt;&lt;br&gt;&lt;/p&gt;&lt;hr size=&quot;1&quot;&gt;&lt;p style=&quot;margin:0px;margin-left:4px;&quot;&gt;+ render() : Object&lt;/p&gt;" style="verticalAlign=top;align=left;overflow=fill;fontSize=12;fontFamily=Helvetica;html=1;whiteSpace=wrap;" parent="1" vertex="1">
          <mxGeometry x="1394.5" y="-370" width="230" height="110" as="geometry" />
        </mxCell>
      </root>
    </mxGraphModel>
  </diagram>
</mxfile>
